%TF.GenerationSoftware,KiCad,Pcbnew,(6.0.0)*%
%TF.CreationDate,2022-06-25T21:25:22+02:00*%
%TF.ProjectId,active3-rpi-hub75-adapter,61637469-7665-4332-9d72-70692d687562,rev?*%
%TF.SameCoordinates,Original*%
%TF.FileFunction,Legend,Top*%
%TF.FilePolarity,Positive*%
%FSLAX46Y46*%
G04 Gerber Fmt 4.6, Leading zero omitted, Abs format (unit mm)*
G04 Created by KiCad (PCBNEW (6.0.0)) date 2022-06-25 21:25:22*
%MOMM*%
%LPD*%
G01*
G04 APERTURE LIST*
G04 Aperture macros list*
%AMRoundRect*
0 Rectangle with rounded corners*
0 $1 Rounding radius*
0 $2 $3 $4 $5 $6 $7 $8 $9 X,Y pos of 4 corners*
0 Add a 4 corners polygon primitive as box body*
4,1,4,$2,$3,$4,$5,$6,$7,$8,$9,$2,$3,0*
0 Add four circle primitives for the rounded corners*
1,1,$1+$1,$2,$3*
1,1,$1+$1,$4,$5*
1,1,$1+$1,$6,$7*
1,1,$1+$1,$8,$9*
0 Add four rect primitives between the rounded corners*
20,1,$1+$1,$2,$3,$4,$5,0*
20,1,$1+$1,$4,$5,$6,$7,0*
20,1,$1+$1,$6,$7,$8,$9,0*
20,1,$1+$1,$8,$9,$2,$3,0*%
G04 Aperture macros list end*
%ADD10C,2.000000*%
%ADD11C,0.200000*%
%ADD12C,0.175000*%
%ADD13C,0.300000*%
%ADD14C,0.150000*%
%ADD15C,0.250000*%
%ADD16C,0.120000*%
%ADD17R,1.727200X1.727200*%
%ADD18O,1.727200X1.727200*%
%ADD19C,4.064000*%
%ADD20R,1.900000X1.900000*%
%ADD21O,4.000000X2.200000*%
%ADD22R,2.032000X2.032000*%
%ADD23C,2.032000*%
%ADD24O,2.032000X2.032000*%
%ADD25RoundRect,0.243750X0.456250X-0.243750X0.456250X0.243750X-0.456250X0.243750X-0.456250X-0.243750X0*%
%ADD26RoundRect,0.243750X-0.243750X-0.456250X0.243750X-0.456250X0.243750X0.456250X-0.243750X0.456250X0*%
%ADD27R,1.600000X1.600000*%
%ADD28C,1.600000*%
%ADD29RoundRect,0.250000X0.625000X-0.375000X0.625000X0.375000X-0.625000X0.375000X-0.625000X-0.375000X0*%
%ADD30C,2.540000*%
%ADD31RoundRect,0.150000X-0.150000X0.875000X-0.150000X-0.875000X0.150000X-0.875000X0.150000X0.875000X0*%
%ADD32R,2.000000X4.000000*%
%ADD33O,2.000000X3.300000*%
%ADD34O,3.500000X2.000000*%
%ADD35R,2.600000X2.600000*%
%ADD36C,2.600000*%
%ADD37RoundRect,0.250000X-0.650000X0.325000X-0.650000X-0.325000X0.650000X-0.325000X0.650000X0.325000X0*%
%ADD38C,0.889000*%
G04 APERTURE END LIST*
D10*
X151765000Y-69977000D02*
X155575000Y-69977000D01*
X123825000Y-69977000D02*
X127635000Y-69977000D01*
X95885000Y-69977000D02*
X99695000Y-69977000D01*
D11*
X90573238Y-56487238D02*
X90468476Y-56425333D01*
X90416095Y-56363428D01*
X90363714Y-56239619D01*
X90363714Y-56177714D01*
X90416095Y-56053904D01*
X90468476Y-55992000D01*
X90573238Y-55930095D01*
X90782761Y-55930095D01*
X90887523Y-55992000D01*
X90939904Y-56053904D01*
X90992285Y-56177714D01*
X90992285Y-56239619D01*
X90939904Y-56363428D01*
X90887523Y-56425333D01*
X90782761Y-56487238D01*
X90573238Y-56487238D01*
X90468476Y-56549142D01*
X90416095Y-56611047D01*
X90363714Y-56734857D01*
X90363714Y-56982476D01*
X90416095Y-57106285D01*
X90468476Y-57168190D01*
X90573238Y-57230095D01*
X90782761Y-57230095D01*
X90887523Y-57168190D01*
X90939904Y-57106285D01*
X90992285Y-56982476D01*
X90992285Y-56734857D01*
X90939904Y-56611047D01*
X90887523Y-56549142D01*
X90782761Y-56487238D01*
X91288095Y-48195238D02*
X92021428Y-47461904D01*
X91654761Y-48195238D02*
X91288095Y-48195238D01*
X91288095Y-47828571D01*
X92597619Y-48247619D02*
X92597619Y-47147619D01*
X93016666Y-47147619D01*
X93121428Y-47200000D01*
X93173809Y-47252380D01*
X93226190Y-47357142D01*
X93226190Y-47514285D01*
X93173809Y-47619047D01*
X93121428Y-47671428D01*
X93016666Y-47723809D01*
X92597619Y-47723809D01*
X93697619Y-48247619D02*
X93697619Y-47514285D01*
X93697619Y-47147619D02*
X93645238Y-47200000D01*
X93697619Y-47252380D01*
X93750000Y-47200000D01*
X93697619Y-47147619D01*
X93697619Y-47252380D01*
X95059523Y-48247619D02*
X95059523Y-47147619D01*
X95478571Y-47147619D01*
X95583333Y-47200000D01*
X95635714Y-47252380D01*
X95688095Y-47357142D01*
X95688095Y-47514285D01*
X95635714Y-47619047D01*
X95583333Y-47671428D01*
X95478571Y-47723809D01*
X95059523Y-47723809D01*
X96316666Y-48247619D02*
X96211904Y-48195238D01*
X96159523Y-48142857D01*
X96107142Y-48038095D01*
X96107142Y-47723809D01*
X96159523Y-47619047D01*
X96211904Y-47566666D01*
X96316666Y-47514285D01*
X96473809Y-47514285D01*
X96578571Y-47566666D01*
X96630952Y-47619047D01*
X96683333Y-47723809D01*
X96683333Y-48038095D01*
X96630952Y-48142857D01*
X96578571Y-48195238D01*
X96473809Y-48247619D01*
X96316666Y-48247619D01*
X97050000Y-47514285D02*
X97259523Y-48247619D01*
X97469047Y-47723809D01*
X97678571Y-48247619D01*
X97888095Y-47514285D01*
X98726190Y-48195238D02*
X98621428Y-48247619D01*
X98411904Y-48247619D01*
X98307142Y-48195238D01*
X98254761Y-48090476D01*
X98254761Y-47671428D01*
X98307142Y-47566666D01*
X98411904Y-47514285D01*
X98621428Y-47514285D01*
X98726190Y-47566666D01*
X98778571Y-47671428D01*
X98778571Y-47776190D01*
X98254761Y-47880952D01*
X99250000Y-48247619D02*
X99250000Y-47514285D01*
X99250000Y-47723809D02*
X99302380Y-47619047D01*
X99354761Y-47566666D01*
X99459523Y-47514285D01*
X99564285Y-47514285D01*
X100769047Y-48247619D02*
X100769047Y-47514285D01*
X100769047Y-47147619D02*
X100716666Y-47200000D01*
X100769047Y-47252380D01*
X100821428Y-47200000D01*
X100769047Y-47147619D01*
X100769047Y-47252380D01*
X101292857Y-47514285D02*
X101292857Y-48247619D01*
X101292857Y-47619047D02*
X101345238Y-47566666D01*
X101450000Y-47514285D01*
X101607142Y-47514285D01*
X101711904Y-47566666D01*
X101764285Y-47671428D01*
X101764285Y-48247619D01*
X86542571Y-61682666D02*
X86542571Y-60920761D01*
X86352095Y-61111238D02*
X86542571Y-60920761D01*
X86733047Y-61111238D01*
X86685428Y-62158857D02*
X86685428Y-62492190D01*
X86161619Y-62635047D02*
X86161619Y-62158857D01*
X87161619Y-62158857D01*
X87161619Y-62635047D01*
X86256857Y-64396952D02*
X86209238Y-64349333D01*
X86161619Y-64206476D01*
X86161619Y-64111238D01*
X86209238Y-63968380D01*
X86304476Y-63873142D01*
X86399714Y-63825523D01*
X86590190Y-63777904D01*
X86733047Y-63777904D01*
X86923523Y-63825523D01*
X87018761Y-63873142D01*
X87114000Y-63968380D01*
X87161619Y-64111238D01*
X87161619Y-64206476D01*
X87114000Y-64349333D01*
X87066380Y-64396952D01*
X86161619Y-64968380D02*
X86209238Y-64873142D01*
X86256857Y-64825523D01*
X86352095Y-64777904D01*
X86637809Y-64777904D01*
X86733047Y-64825523D01*
X86780666Y-64873142D01*
X86828285Y-64968380D01*
X86828285Y-65111238D01*
X86780666Y-65206476D01*
X86733047Y-65254095D01*
X86637809Y-65301714D01*
X86352095Y-65301714D01*
X86256857Y-65254095D01*
X86209238Y-65206476D01*
X86161619Y-65111238D01*
X86161619Y-64968380D01*
X86828285Y-65730285D02*
X86161619Y-65730285D01*
X86733047Y-65730285D02*
X86780666Y-65777904D01*
X86828285Y-65873142D01*
X86828285Y-66016000D01*
X86780666Y-66111238D01*
X86685428Y-66158857D01*
X86161619Y-66158857D01*
X86828285Y-66492190D02*
X86828285Y-66873142D01*
X86161619Y-66635047D02*
X87018761Y-66635047D01*
X87114000Y-66682666D01*
X87161619Y-66777904D01*
X87161619Y-66873142D01*
X86161619Y-67206476D02*
X86828285Y-67206476D01*
X87161619Y-67206476D02*
X87114000Y-67158857D01*
X87066380Y-67206476D01*
X87114000Y-67254095D01*
X87161619Y-67206476D01*
X87066380Y-67206476D01*
X86828285Y-68111238D02*
X86018761Y-68111238D01*
X85923523Y-68063619D01*
X85875904Y-68016000D01*
X85828285Y-67920761D01*
X85828285Y-67777904D01*
X85875904Y-67682666D01*
X86209238Y-68111238D02*
X86161619Y-68016000D01*
X86161619Y-67825523D01*
X86209238Y-67730285D01*
X86256857Y-67682666D01*
X86352095Y-67635047D01*
X86637809Y-67635047D01*
X86733047Y-67682666D01*
X86780666Y-67730285D01*
X86828285Y-67825523D01*
X86828285Y-68016000D01*
X86780666Y-68111238D01*
X84367714Y-54030571D02*
X84701047Y-54030571D01*
X84843904Y-54554380D02*
X84367714Y-54554380D01*
X84367714Y-53554380D01*
X84843904Y-53554380D01*
D12*
X84843904Y-57959000D02*
X84748666Y-57925666D01*
X84605809Y-57925666D01*
X84462952Y-57959000D01*
X84367714Y-58025666D01*
X84320095Y-58092333D01*
X84272476Y-58225666D01*
X84272476Y-58325666D01*
X84320095Y-58459000D01*
X84367714Y-58525666D01*
X84462952Y-58592333D01*
X84605809Y-58625666D01*
X84701047Y-58625666D01*
X84843904Y-58592333D01*
X84891523Y-58559000D01*
X84891523Y-58325666D01*
X84701047Y-58325666D01*
X84296285Y-59752666D02*
X84296285Y-59052666D01*
X84867714Y-59752666D01*
X84867714Y-59052666D01*
X84320095Y-60879666D02*
X84320095Y-60179666D01*
X84558190Y-60179666D01*
X84701047Y-60213000D01*
X84796285Y-60279666D01*
X84843904Y-60346333D01*
X84891523Y-60479666D01*
X84891523Y-60579666D01*
X84843904Y-60713000D01*
X84796285Y-60779666D01*
X84701047Y-60846333D01*
X84558190Y-60879666D01*
X84320095Y-60879666D01*
D11*
X90463714Y-54030571D02*
X90797047Y-54030571D01*
X90939904Y-54554380D02*
X90463714Y-54554380D01*
X90463714Y-53554380D01*
X90939904Y-53554380D01*
D12*
X90939904Y-57959000D02*
X90844666Y-57925666D01*
X90701809Y-57925666D01*
X90558952Y-57959000D01*
X90463714Y-58025666D01*
X90416095Y-58092333D01*
X90368476Y-58225666D01*
X90368476Y-58325666D01*
X90416095Y-58459000D01*
X90463714Y-58525666D01*
X90558952Y-58592333D01*
X90701809Y-58625666D01*
X90797047Y-58625666D01*
X90939904Y-58592333D01*
X90987523Y-58559000D01*
X90987523Y-58325666D01*
X90797047Y-58325666D01*
X90392285Y-59752666D02*
X90392285Y-59052666D01*
X90963714Y-59752666D01*
X90963714Y-59052666D01*
X90416095Y-60879666D02*
X90416095Y-60179666D01*
X90654190Y-60179666D01*
X90797047Y-60213000D01*
X90892285Y-60279666D01*
X90939904Y-60346333D01*
X90987523Y-60479666D01*
X90987523Y-60579666D01*
X90939904Y-60713000D01*
X90892285Y-60779666D01*
X90797047Y-60846333D01*
X90654190Y-60879666D01*
X90416095Y-60879666D01*
D13*
X105142857Y-38654761D02*
X105142857Y-37321428D01*
X105142857Y-37702380D02*
X105238095Y-37511904D01*
X105333333Y-37416666D01*
X105523809Y-37321428D01*
X105714285Y-37321428D01*
X106380952Y-37321428D02*
X106380952Y-39321428D01*
X106380952Y-37416666D02*
X106571428Y-37321428D01*
X106952380Y-37321428D01*
X107142857Y-37416666D01*
X107238095Y-37511904D01*
X107333333Y-37702380D01*
X107333333Y-38273809D01*
X107238095Y-38464285D01*
X107142857Y-38559523D01*
X106952380Y-38654761D01*
X106571428Y-38654761D01*
X106380952Y-38559523D01*
X108190476Y-38654761D02*
X108190476Y-37321428D01*
X108190476Y-36654761D02*
X108095238Y-36750000D01*
X108190476Y-36845238D01*
X108285714Y-36750000D01*
X108190476Y-36654761D01*
X108190476Y-36845238D01*
X109142857Y-37892857D02*
X110666666Y-37892857D01*
X111619047Y-38654761D02*
X111619047Y-37321428D01*
X111619047Y-37702380D02*
X111714285Y-37511904D01*
X111809523Y-37416666D01*
X112000000Y-37321428D01*
X112190476Y-37321428D01*
X113714285Y-37321428D02*
X113714285Y-38940476D01*
X113619047Y-39130952D01*
X113523809Y-39226190D01*
X113333333Y-39321428D01*
X113047619Y-39321428D01*
X112857142Y-39226190D01*
X113714285Y-38559523D02*
X113523809Y-38654761D01*
X113142857Y-38654761D01*
X112952380Y-38559523D01*
X112857142Y-38464285D01*
X112761904Y-38273809D01*
X112761904Y-37702380D01*
X112857142Y-37511904D01*
X112952380Y-37416666D01*
X113142857Y-37321428D01*
X113523809Y-37321428D01*
X113714285Y-37416666D01*
X114666666Y-38654761D02*
X114666666Y-36654761D01*
X114666666Y-37416666D02*
X114857142Y-37321428D01*
X115238095Y-37321428D01*
X115428571Y-37416666D01*
X115523809Y-37511904D01*
X115619047Y-37702380D01*
X115619047Y-38273809D01*
X115523809Y-38464285D01*
X115428571Y-38559523D01*
X115238095Y-38654761D01*
X114857142Y-38654761D01*
X114666666Y-38559523D01*
X116476190Y-37892857D02*
X118000000Y-37892857D01*
X119238095Y-38654761D02*
X119047619Y-38559523D01*
X118952380Y-38369047D01*
X118952380Y-36654761D01*
X120761904Y-38559523D02*
X120571428Y-38654761D01*
X120190476Y-38654761D01*
X120000000Y-38559523D01*
X119904761Y-38369047D01*
X119904761Y-37607142D01*
X120000000Y-37416666D01*
X120190476Y-37321428D01*
X120571428Y-37321428D01*
X120761904Y-37416666D01*
X120857142Y-37607142D01*
X120857142Y-37797619D01*
X119904761Y-37988095D01*
X122571428Y-38654761D02*
X122571428Y-36654761D01*
X122571428Y-38559523D02*
X122380952Y-38654761D01*
X122000000Y-38654761D01*
X121809523Y-38559523D01*
X121714285Y-38464285D01*
X121619047Y-38273809D01*
X121619047Y-37702380D01*
X121714285Y-37511904D01*
X121809523Y-37416666D01*
X122000000Y-37321428D01*
X122380952Y-37321428D01*
X122571428Y-37416666D01*
X123523809Y-37892857D02*
X125047619Y-37892857D01*
X126000000Y-38654761D02*
X126000000Y-37321428D01*
X126000000Y-37511904D02*
X126095238Y-37416666D01*
X126285714Y-37321428D01*
X126571428Y-37321428D01*
X126761904Y-37416666D01*
X126857142Y-37607142D01*
X126857142Y-38654761D01*
X126857142Y-37607142D02*
X126952380Y-37416666D01*
X127142857Y-37321428D01*
X127428571Y-37321428D01*
X127619047Y-37416666D01*
X127714285Y-37607142D01*
X127714285Y-38654761D01*
X129523809Y-38654761D02*
X129523809Y-37607142D01*
X129428571Y-37416666D01*
X129238095Y-37321428D01*
X128857142Y-37321428D01*
X128666666Y-37416666D01*
X129523809Y-38559523D02*
X129333333Y-38654761D01*
X128857142Y-38654761D01*
X128666666Y-38559523D01*
X128571428Y-38369047D01*
X128571428Y-38178571D01*
X128666666Y-37988095D01*
X128857142Y-37892857D01*
X129333333Y-37892857D01*
X129523809Y-37797619D01*
X130190476Y-37321428D02*
X130952380Y-37321428D01*
X130476190Y-36654761D02*
X130476190Y-38369047D01*
X130571428Y-38559523D01*
X130761904Y-38654761D01*
X130952380Y-38654761D01*
X131619047Y-38654761D02*
X131619047Y-37321428D01*
X131619047Y-37702380D02*
X131714285Y-37511904D01*
X131809523Y-37416666D01*
X132000000Y-37321428D01*
X132190476Y-37321428D01*
X132857142Y-38654761D02*
X132857142Y-37321428D01*
X132857142Y-36654761D02*
X132761904Y-36750000D01*
X132857142Y-36845238D01*
X132952380Y-36750000D01*
X132857142Y-36654761D01*
X132857142Y-36845238D01*
X133619047Y-38654761D02*
X134666666Y-37321428D01*
X133619047Y-37321428D02*
X134666666Y-38654761D01*
X135428571Y-37892857D02*
X136952380Y-37892857D01*
X137904761Y-37321428D02*
X137904761Y-39321428D01*
X137904761Y-37416666D02*
X138095238Y-37321428D01*
X138476190Y-37321428D01*
X138666666Y-37416666D01*
X138761904Y-37511904D01*
X138857142Y-37702380D01*
X138857142Y-38273809D01*
X138761904Y-38464285D01*
X138666666Y-38559523D01*
X138476190Y-38654761D01*
X138095238Y-38654761D01*
X137904761Y-38559523D01*
X139523809Y-37321428D02*
X139904761Y-38654761D01*
X140285714Y-37702380D01*
X140666666Y-38654761D01*
X141047619Y-37321428D01*
X141809523Y-38654761D02*
X141809523Y-37321428D01*
X141809523Y-37702380D02*
X141904761Y-37511904D01*
X142000000Y-37416666D01*
X142190476Y-37321428D01*
X142380952Y-37321428D01*
X143047619Y-37892857D02*
X144571428Y-37892857D01*
X145523809Y-38654761D02*
X145523809Y-37321428D01*
X145523809Y-37511904D02*
X145619047Y-37416666D01*
X145809523Y-37321428D01*
X146095238Y-37321428D01*
X146285714Y-37416666D01*
X146380952Y-37607142D01*
X146380952Y-38654761D01*
X146380952Y-37607142D02*
X146476190Y-37416666D01*
X146666666Y-37321428D01*
X146952380Y-37321428D01*
X147142857Y-37416666D01*
X147238095Y-37607142D01*
X147238095Y-38654761D01*
X148476190Y-38654761D02*
X148285714Y-38559523D01*
X148190476Y-38464285D01*
X148095238Y-38273809D01*
X148095238Y-37702380D01*
X148190476Y-37511904D01*
X148285714Y-37416666D01*
X148476190Y-37321428D01*
X148761904Y-37321428D01*
X148952380Y-37416666D01*
X149047619Y-37511904D01*
X149142857Y-37702380D01*
X149142857Y-38273809D01*
X149047619Y-38464285D01*
X148952380Y-38559523D01*
X148761904Y-38654761D01*
X148476190Y-38654761D01*
X150857142Y-38654761D02*
X150857142Y-36654761D01*
X150857142Y-38559523D02*
X150666666Y-38654761D01*
X150285714Y-38654761D01*
X150095238Y-38559523D01*
X150000000Y-38464285D01*
X149904761Y-38273809D01*
X149904761Y-37702380D01*
X150000000Y-37511904D01*
X150095238Y-37416666D01*
X150285714Y-37321428D01*
X150666666Y-37321428D01*
X150857142Y-37416666D01*
D11*
X84791523Y-56363428D02*
X84791523Y-57230095D01*
X84529619Y-55868190D02*
X84267714Y-56796761D01*
X84948666Y-56796761D01*
D14*
X47333333Y-38071428D02*
X48095238Y-38071428D01*
X47714285Y-38452380D02*
X47714285Y-37690476D01*
X49047619Y-37452380D02*
X48571428Y-37452380D01*
X48523809Y-37928571D01*
X48571428Y-37880952D01*
X48666666Y-37833333D01*
X48904761Y-37833333D01*
X49000000Y-37880952D01*
X49047619Y-37928571D01*
X49095238Y-38023809D01*
X49095238Y-38261904D01*
X49047619Y-38357142D01*
X49000000Y-38404761D01*
X48904761Y-38452380D01*
X48666666Y-38452380D01*
X48571428Y-38404761D01*
X48523809Y-38357142D01*
X49380952Y-37452380D02*
X49714285Y-38452380D01*
X50047619Y-37452380D01*
D15*
X158210285Y-48569619D02*
X158781714Y-48569619D01*
X158496000Y-48569619D02*
X158496000Y-49569619D01*
X158591238Y-49426761D01*
X158686476Y-49331523D01*
X158781714Y-49283904D01*
D11*
X151455714Y-47492857D02*
X151455714Y-46292857D01*
X152027142Y-46692857D02*
X152027142Y-47492857D01*
X152027142Y-46807142D02*
X152084285Y-46750000D01*
X152198571Y-46692857D01*
X152370000Y-46692857D01*
X152484285Y-46750000D01*
X152541428Y-46864285D01*
X152541428Y-47492857D01*
X152941428Y-46692857D02*
X153398571Y-46692857D01*
X153112857Y-46292857D02*
X153112857Y-47321428D01*
X153170000Y-47435714D01*
X153284285Y-47492857D01*
X153398571Y-47492857D01*
X154255714Y-47435714D02*
X154141428Y-47492857D01*
X153912857Y-47492857D01*
X153798571Y-47435714D01*
X153741428Y-47321428D01*
X153741428Y-46864285D01*
X153798571Y-46750000D01*
X153912857Y-46692857D01*
X154141428Y-46692857D01*
X154255714Y-46750000D01*
X154312857Y-46864285D01*
X154312857Y-46978571D01*
X153741428Y-47092857D01*
X154827142Y-47492857D02*
X154827142Y-46692857D01*
X154827142Y-46921428D02*
X154884285Y-46807142D01*
X154941428Y-46750000D01*
X155055714Y-46692857D01*
X155170000Y-46692857D01*
X155398571Y-46692857D02*
X155855714Y-46692857D01*
X155570000Y-47492857D02*
X155570000Y-46464285D01*
X155627142Y-46350000D01*
X155741428Y-46292857D01*
X155855714Y-46292857D01*
X156770000Y-47492857D02*
X156770000Y-46864285D01*
X156712857Y-46750000D01*
X156598571Y-46692857D01*
X156370000Y-46692857D01*
X156255714Y-46750000D01*
X156770000Y-47435714D02*
X156655714Y-47492857D01*
X156370000Y-47492857D01*
X156255714Y-47435714D01*
X156198571Y-47321428D01*
X156198571Y-47207142D01*
X156255714Y-47092857D01*
X156370000Y-47035714D01*
X156655714Y-47035714D01*
X156770000Y-46978571D01*
X157855714Y-47435714D02*
X157741428Y-47492857D01*
X157512857Y-47492857D01*
X157398571Y-47435714D01*
X157341428Y-47378571D01*
X157284285Y-47264285D01*
X157284285Y-46921428D01*
X157341428Y-46807142D01*
X157398571Y-46750000D01*
X157512857Y-46692857D01*
X157741428Y-46692857D01*
X157855714Y-46750000D01*
X158827142Y-47435714D02*
X158712857Y-47492857D01*
X158484285Y-47492857D01*
X158370000Y-47435714D01*
X158312857Y-47321428D01*
X158312857Y-46864285D01*
X158370000Y-46750000D01*
X158484285Y-46692857D01*
X158712857Y-46692857D01*
X158827142Y-46750000D01*
X158884285Y-46864285D01*
X158884285Y-46978571D01*
X158312857Y-47092857D01*
X159341428Y-47435714D02*
X159455714Y-47492857D01*
X159684285Y-47492857D01*
X159798571Y-47435714D01*
X159855714Y-47321428D01*
X159855714Y-47264285D01*
X159798571Y-47150000D01*
X159684285Y-47092857D01*
X159512857Y-47092857D01*
X159398571Y-47035714D01*
X159341428Y-46921428D01*
X159341428Y-46864285D01*
X159398571Y-46750000D01*
X159512857Y-46692857D01*
X159684285Y-46692857D01*
X159798571Y-46750000D01*
X160370000Y-47035714D02*
X161284285Y-47035714D01*
X161055714Y-47264285D02*
X161284285Y-47035714D01*
X161055714Y-46807142D01*
D15*
X117125714Y-70810380D02*
X116554285Y-70810380D01*
X116840000Y-70810380D02*
X116840000Y-69810380D01*
X116744761Y-69953238D01*
X116649523Y-70048476D01*
X116554285Y-70096095D01*
D14*
X93847619Y-60061904D02*
X94304761Y-60061904D01*
X94076190Y-60861904D02*
X94076190Y-60061904D01*
X94685714Y-60861904D02*
X94609523Y-60823809D01*
X94571428Y-60785714D01*
X94533333Y-60709523D01*
X94533333Y-60480952D01*
X94571428Y-60404761D01*
X94609523Y-60366666D01*
X94685714Y-60328571D01*
X94800000Y-60328571D01*
X94876190Y-60366666D01*
X94914285Y-60404761D01*
X94952380Y-60480952D01*
X94952380Y-60709523D01*
X94914285Y-60785714D01*
X94876190Y-60823809D01*
X94800000Y-60861904D01*
X94685714Y-60861904D01*
X95295238Y-60328571D02*
X95295238Y-61128571D01*
X95295238Y-60366666D02*
X95371428Y-60328571D01*
X95523809Y-60328571D01*
X95600000Y-60366666D01*
X95638095Y-60404761D01*
X95676190Y-60480952D01*
X95676190Y-60709523D01*
X95638095Y-60785714D01*
X95600000Y-60823809D01*
X95523809Y-60861904D01*
X95371428Y-60861904D01*
X95295238Y-60823809D01*
X97085714Y-60785714D02*
X97047619Y-60823809D01*
X96933333Y-60861904D01*
X96857142Y-60861904D01*
X96742857Y-60823809D01*
X96666666Y-60747619D01*
X96628571Y-60671428D01*
X96590476Y-60519047D01*
X96590476Y-60404761D01*
X96628571Y-60252380D01*
X96666666Y-60176190D01*
X96742857Y-60100000D01*
X96857142Y-60061904D01*
X96933333Y-60061904D01*
X97047619Y-60100000D01*
X97085714Y-60138095D01*
X97428571Y-60861904D02*
X97428571Y-60061904D01*
X97771428Y-60861904D02*
X97771428Y-60442857D01*
X97733333Y-60366666D01*
X97657142Y-60328571D01*
X97542857Y-60328571D01*
X97466666Y-60366666D01*
X97428571Y-60404761D01*
X98495238Y-60861904D02*
X98495238Y-60442857D01*
X98457142Y-60366666D01*
X98380952Y-60328571D01*
X98228571Y-60328571D01*
X98152380Y-60366666D01*
X98495238Y-60823809D02*
X98419047Y-60861904D01*
X98228571Y-60861904D01*
X98152380Y-60823809D01*
X98114285Y-60747619D01*
X98114285Y-60671428D01*
X98152380Y-60595238D01*
X98228571Y-60557142D01*
X98419047Y-60557142D01*
X98495238Y-60519047D01*
X98876190Y-60861904D02*
X98876190Y-60328571D01*
X98876190Y-60061904D02*
X98838095Y-60100000D01*
X98876190Y-60138095D01*
X98914285Y-60100000D01*
X98876190Y-60061904D01*
X98876190Y-60138095D01*
X99257142Y-60328571D02*
X99257142Y-60861904D01*
X99257142Y-60404761D02*
X99295238Y-60366666D01*
X99371428Y-60328571D01*
X99485714Y-60328571D01*
X99561904Y-60366666D01*
X99600000Y-60442857D01*
X99600000Y-60861904D01*
X100819047Y-61166666D02*
X100780952Y-61128571D01*
X100704761Y-61014285D01*
X100666666Y-60938095D01*
X100628571Y-60823809D01*
X100590476Y-60633333D01*
X100590476Y-60480952D01*
X100628571Y-60290476D01*
X100666666Y-60176190D01*
X100704761Y-60100000D01*
X100780952Y-59985714D01*
X100819047Y-59947619D01*
X101542857Y-60861904D02*
X101085714Y-60861904D01*
X101314285Y-60861904D02*
X101314285Y-60061904D01*
X101238095Y-60176190D01*
X101161904Y-60252380D01*
X101085714Y-60290476D01*
X101809523Y-61166666D02*
X101847619Y-61128571D01*
X101923809Y-61014285D01*
X101961904Y-60938095D01*
X102000000Y-60823809D01*
X102038095Y-60633333D01*
X102038095Y-60480952D01*
X102000000Y-60290476D01*
X101961904Y-60176190D01*
X101923809Y-60100000D01*
X101847619Y-59985714D01*
X101809523Y-59947619D01*
D15*
X122650285Y-48569619D02*
X123221714Y-48569619D01*
X122936000Y-48569619D02*
X122936000Y-49569619D01*
X123031238Y-49426761D01*
X123126476Y-49331523D01*
X123221714Y-49283904D01*
D14*
X148812857Y-60442857D02*
X148927142Y-60480952D01*
X148965238Y-60519047D01*
X149003333Y-60595238D01*
X149003333Y-60709523D01*
X148965238Y-60785714D01*
X148927142Y-60823809D01*
X148850952Y-60861904D01*
X148546190Y-60861904D01*
X148546190Y-60061904D01*
X148812857Y-60061904D01*
X148889047Y-60100000D01*
X148927142Y-60138095D01*
X148965238Y-60214285D01*
X148965238Y-60290476D01*
X148927142Y-60366666D01*
X148889047Y-60404761D01*
X148812857Y-60442857D01*
X148546190Y-60442857D01*
X149460476Y-60861904D02*
X149384285Y-60823809D01*
X149346190Y-60785714D01*
X149308095Y-60709523D01*
X149308095Y-60480952D01*
X149346190Y-60404761D01*
X149384285Y-60366666D01*
X149460476Y-60328571D01*
X149574761Y-60328571D01*
X149650952Y-60366666D01*
X149689047Y-60404761D01*
X149727142Y-60480952D01*
X149727142Y-60709523D01*
X149689047Y-60785714D01*
X149650952Y-60823809D01*
X149574761Y-60861904D01*
X149460476Y-60861904D01*
X149955714Y-60328571D02*
X150260476Y-60328571D01*
X150070000Y-60061904D02*
X150070000Y-60747619D01*
X150108095Y-60823809D01*
X150184285Y-60861904D01*
X150260476Y-60861904D01*
X150412857Y-60328571D02*
X150717619Y-60328571D01*
X150527142Y-60061904D02*
X150527142Y-60747619D01*
X150565238Y-60823809D01*
X150641428Y-60861904D01*
X150717619Y-60861904D01*
X151098571Y-60861904D02*
X151022380Y-60823809D01*
X150984285Y-60785714D01*
X150946190Y-60709523D01*
X150946190Y-60480952D01*
X150984285Y-60404761D01*
X151022380Y-60366666D01*
X151098571Y-60328571D01*
X151212857Y-60328571D01*
X151289047Y-60366666D01*
X151327142Y-60404761D01*
X151365238Y-60480952D01*
X151365238Y-60709523D01*
X151327142Y-60785714D01*
X151289047Y-60823809D01*
X151212857Y-60861904D01*
X151098571Y-60861904D01*
X151708095Y-60861904D02*
X151708095Y-60328571D01*
X151708095Y-60404761D02*
X151746190Y-60366666D01*
X151822380Y-60328571D01*
X151936666Y-60328571D01*
X152012857Y-60366666D01*
X152050952Y-60442857D01*
X152050952Y-60861904D01*
X152050952Y-60442857D02*
X152089047Y-60366666D01*
X152165238Y-60328571D01*
X152279523Y-60328571D01*
X152355714Y-60366666D01*
X152393809Y-60442857D01*
X152393809Y-60861904D01*
X153841428Y-60785714D02*
X153803333Y-60823809D01*
X153689047Y-60861904D01*
X153612857Y-60861904D01*
X153498571Y-60823809D01*
X153422380Y-60747619D01*
X153384285Y-60671428D01*
X153346190Y-60519047D01*
X153346190Y-60404761D01*
X153384285Y-60252380D01*
X153422380Y-60176190D01*
X153498571Y-60100000D01*
X153612857Y-60061904D01*
X153689047Y-60061904D01*
X153803333Y-60100000D01*
X153841428Y-60138095D01*
X154184285Y-60861904D02*
X154184285Y-60061904D01*
X154527142Y-60861904D02*
X154527142Y-60442857D01*
X154489047Y-60366666D01*
X154412857Y-60328571D01*
X154298571Y-60328571D01*
X154222380Y-60366666D01*
X154184285Y-60404761D01*
X155250952Y-60861904D02*
X155250952Y-60442857D01*
X155212857Y-60366666D01*
X155136666Y-60328571D01*
X154984285Y-60328571D01*
X154908095Y-60366666D01*
X155250952Y-60823809D02*
X155174761Y-60861904D01*
X154984285Y-60861904D01*
X154908095Y-60823809D01*
X154870000Y-60747619D01*
X154870000Y-60671428D01*
X154908095Y-60595238D01*
X154984285Y-60557142D01*
X155174761Y-60557142D01*
X155250952Y-60519047D01*
X155631904Y-60861904D02*
X155631904Y-60328571D01*
X155631904Y-60061904D02*
X155593809Y-60100000D01*
X155631904Y-60138095D01*
X155670000Y-60100000D01*
X155631904Y-60061904D01*
X155631904Y-60138095D01*
X156012857Y-60328571D02*
X156012857Y-60861904D01*
X156012857Y-60404761D02*
X156050952Y-60366666D01*
X156127142Y-60328571D01*
X156241428Y-60328571D01*
X156317619Y-60366666D01*
X156355714Y-60442857D01*
X156355714Y-60861904D01*
X157574761Y-61166666D02*
X157536666Y-61128571D01*
X157460476Y-61014285D01*
X157422380Y-60938095D01*
X157384285Y-60823809D01*
X157346190Y-60633333D01*
X157346190Y-60480952D01*
X157384285Y-60290476D01*
X157422380Y-60176190D01*
X157460476Y-60100000D01*
X157536666Y-59985714D01*
X157574761Y-59947619D01*
X157803333Y-60061904D02*
X158298571Y-60061904D01*
X158031904Y-60366666D01*
X158146190Y-60366666D01*
X158222380Y-60404761D01*
X158260476Y-60442857D01*
X158298571Y-60519047D01*
X158298571Y-60709523D01*
X158260476Y-60785714D01*
X158222380Y-60823809D01*
X158146190Y-60861904D01*
X157917619Y-60861904D01*
X157841428Y-60823809D01*
X157803333Y-60785714D01*
X158565238Y-61166666D02*
X158603333Y-61128571D01*
X158679523Y-61014285D01*
X158717619Y-60938095D01*
X158755714Y-60823809D01*
X158793809Y-60633333D01*
X158793809Y-60480952D01*
X158755714Y-60290476D01*
X158717619Y-60176190D01*
X158679523Y-60100000D01*
X158603333Y-59985714D01*
X158565238Y-59947619D01*
D15*
X140430285Y-48569619D02*
X141001714Y-48569619D01*
X140716000Y-48569619D02*
X140716000Y-49569619D01*
X140811238Y-49426761D01*
X140906476Y-49331523D01*
X141001714Y-49283904D01*
D11*
X90091428Y-45004476D02*
X90091428Y-45842571D01*
X89672380Y-45423523D02*
X90510476Y-45423523D01*
X90772380Y-46890190D02*
X90772380Y-46366380D01*
X90248571Y-46314000D01*
X90300952Y-46366380D01*
X90353333Y-46471142D01*
X90353333Y-46733047D01*
X90300952Y-46837809D01*
X90248571Y-46890190D01*
X90143809Y-46942571D01*
X89881904Y-46942571D01*
X89777142Y-46890190D01*
X89724761Y-46837809D01*
X89672380Y-46733047D01*
X89672380Y-46471142D01*
X89724761Y-46366380D01*
X89777142Y-46314000D01*
X90772380Y-47256857D02*
X89672380Y-47623523D01*
X90772380Y-47990190D01*
X90720000Y-49771142D02*
X90772380Y-49666380D01*
X90772380Y-49509238D01*
X90720000Y-49352095D01*
X90615238Y-49247333D01*
X90510476Y-49194952D01*
X90300952Y-49142571D01*
X90143809Y-49142571D01*
X89934285Y-49194952D01*
X89829523Y-49247333D01*
X89724761Y-49352095D01*
X89672380Y-49509238D01*
X89672380Y-49614000D01*
X89724761Y-49771142D01*
X89777142Y-49823523D01*
X90143809Y-49823523D01*
X90143809Y-49614000D01*
X89672380Y-50294952D02*
X90772380Y-50294952D01*
X89672380Y-50923523D01*
X90772380Y-50923523D01*
X89672380Y-51447333D02*
X90772380Y-51447333D01*
X90772380Y-51709238D01*
X90720000Y-51866380D01*
X90615238Y-51971142D01*
X90510476Y-52023523D01*
X90300952Y-52075904D01*
X90143809Y-52075904D01*
X89934285Y-52023523D01*
X89829523Y-51971142D01*
X89724761Y-51866380D01*
X89672380Y-51709238D01*
X89672380Y-51447333D01*
D15*
X104870285Y-48569619D02*
X105441714Y-48569619D01*
X105156000Y-48569619D02*
X105156000Y-49569619D01*
X105251238Y-49426761D01*
X105346476Y-49331523D01*
X105441714Y-49283904D01*
X89185714Y-70810380D02*
X88614285Y-70810380D01*
X88900000Y-70810380D02*
X88900000Y-69810380D01*
X88804761Y-69953238D01*
X88709523Y-70048476D01*
X88614285Y-70096095D01*
X145065714Y-70810380D02*
X144494285Y-70810380D01*
X144780000Y-70810380D02*
X144780000Y-69810380D01*
X144684761Y-69953238D01*
X144589523Y-70048476D01*
X144494285Y-70096095D01*
D14*
X121558666Y-60861904D02*
X121558666Y-60061904D01*
X121825333Y-60633333D01*
X122092000Y-60061904D01*
X122092000Y-60861904D01*
X122472952Y-60861904D02*
X122472952Y-60328571D01*
X122472952Y-60061904D02*
X122434857Y-60100000D01*
X122472952Y-60138095D01*
X122511047Y-60100000D01*
X122472952Y-60061904D01*
X122472952Y-60138095D01*
X123196761Y-60861904D02*
X123196761Y-60061904D01*
X123196761Y-60823809D02*
X123120571Y-60861904D01*
X122968190Y-60861904D01*
X122892000Y-60823809D01*
X122853904Y-60785714D01*
X122815809Y-60709523D01*
X122815809Y-60480952D01*
X122853904Y-60404761D01*
X122892000Y-60366666D01*
X122968190Y-60328571D01*
X123120571Y-60328571D01*
X123196761Y-60366666D01*
X123920571Y-60861904D02*
X123920571Y-60061904D01*
X123920571Y-60823809D02*
X123844380Y-60861904D01*
X123692000Y-60861904D01*
X123615809Y-60823809D01*
X123577714Y-60785714D01*
X123539619Y-60709523D01*
X123539619Y-60480952D01*
X123577714Y-60404761D01*
X123615809Y-60366666D01*
X123692000Y-60328571D01*
X123844380Y-60328571D01*
X123920571Y-60366666D01*
X124415809Y-60861904D02*
X124339619Y-60823809D01*
X124301523Y-60747619D01*
X124301523Y-60061904D01*
X125025333Y-60823809D02*
X124949142Y-60861904D01*
X124796761Y-60861904D01*
X124720571Y-60823809D01*
X124682476Y-60747619D01*
X124682476Y-60442857D01*
X124720571Y-60366666D01*
X124796761Y-60328571D01*
X124949142Y-60328571D01*
X125025333Y-60366666D01*
X125063428Y-60442857D01*
X125063428Y-60519047D01*
X124682476Y-60595238D01*
X126472952Y-60785714D02*
X126434857Y-60823809D01*
X126320571Y-60861904D01*
X126244380Y-60861904D01*
X126130095Y-60823809D01*
X126053904Y-60747619D01*
X126015809Y-60671428D01*
X125977714Y-60519047D01*
X125977714Y-60404761D01*
X126015809Y-60252380D01*
X126053904Y-60176190D01*
X126130095Y-60100000D01*
X126244380Y-60061904D01*
X126320571Y-60061904D01*
X126434857Y-60100000D01*
X126472952Y-60138095D01*
X126815809Y-60861904D02*
X126815809Y-60061904D01*
X127158666Y-60861904D02*
X127158666Y-60442857D01*
X127120571Y-60366666D01*
X127044380Y-60328571D01*
X126930095Y-60328571D01*
X126853904Y-60366666D01*
X126815809Y-60404761D01*
X127882476Y-60861904D02*
X127882476Y-60442857D01*
X127844380Y-60366666D01*
X127768190Y-60328571D01*
X127615809Y-60328571D01*
X127539619Y-60366666D01*
X127882476Y-60823809D02*
X127806285Y-60861904D01*
X127615809Y-60861904D01*
X127539619Y-60823809D01*
X127501523Y-60747619D01*
X127501523Y-60671428D01*
X127539619Y-60595238D01*
X127615809Y-60557142D01*
X127806285Y-60557142D01*
X127882476Y-60519047D01*
X128263428Y-60861904D02*
X128263428Y-60328571D01*
X128263428Y-60061904D02*
X128225333Y-60100000D01*
X128263428Y-60138095D01*
X128301523Y-60100000D01*
X128263428Y-60061904D01*
X128263428Y-60138095D01*
X128644380Y-60328571D02*
X128644380Y-60861904D01*
X128644380Y-60404761D02*
X128682476Y-60366666D01*
X128758666Y-60328571D01*
X128872952Y-60328571D01*
X128949142Y-60366666D01*
X128987238Y-60442857D01*
X128987238Y-60861904D01*
X130206285Y-61166666D02*
X130168190Y-61128571D01*
X130092000Y-61014285D01*
X130053904Y-60938095D01*
X130015809Y-60823809D01*
X129977714Y-60633333D01*
X129977714Y-60480952D01*
X130015809Y-60290476D01*
X130053904Y-60176190D01*
X130092000Y-60100000D01*
X130168190Y-59985714D01*
X130206285Y-59947619D01*
X130472952Y-60138095D02*
X130511047Y-60100000D01*
X130587238Y-60061904D01*
X130777714Y-60061904D01*
X130853904Y-60100000D01*
X130892000Y-60138095D01*
X130930095Y-60214285D01*
X130930095Y-60290476D01*
X130892000Y-60404761D01*
X130434857Y-60861904D01*
X130930095Y-60861904D01*
X131196761Y-61166666D02*
X131234857Y-61128571D01*
X131311047Y-61014285D01*
X131349142Y-60938095D01*
X131387238Y-60823809D01*
X131425333Y-60633333D01*
X131425333Y-60480952D01*
X131387238Y-60290476D01*
X131349142Y-60176190D01*
X131311047Y-60100000D01*
X131234857Y-59985714D01*
X131196761Y-59947619D01*
%TO.C,C1*%
X107607142Y-55416666D02*
X107654761Y-55464285D01*
X107702380Y-55607142D01*
X107702380Y-55702380D01*
X107654761Y-55845238D01*
X107559523Y-55940476D01*
X107464285Y-55988095D01*
X107273809Y-56035714D01*
X107130952Y-56035714D01*
X106940476Y-55988095D01*
X106845238Y-55940476D01*
X106750000Y-55845238D01*
X106702380Y-55702380D01*
X106702380Y-55607142D01*
X106750000Y-55464285D01*
X106797619Y-55416666D01*
X107702380Y-54464285D02*
X107702380Y-55035714D01*
X107702380Y-54750000D02*
X106702380Y-54750000D01*
X106845238Y-54845238D01*
X106940476Y-54940476D01*
X106988095Y-55035714D01*
%TO.C,C2*%
X125607142Y-55416666D02*
X125654761Y-55464285D01*
X125702380Y-55607142D01*
X125702380Y-55702380D01*
X125654761Y-55845238D01*
X125559523Y-55940476D01*
X125464285Y-55988095D01*
X125273809Y-56035714D01*
X125130952Y-56035714D01*
X124940476Y-55988095D01*
X124845238Y-55940476D01*
X124750000Y-55845238D01*
X124702380Y-55702380D01*
X124702380Y-55607142D01*
X124750000Y-55464285D01*
X124797619Y-55416666D01*
X124797619Y-55035714D02*
X124750000Y-54988095D01*
X124702380Y-54892857D01*
X124702380Y-54654761D01*
X124750000Y-54559523D01*
X124797619Y-54511904D01*
X124892857Y-54464285D01*
X124988095Y-54464285D01*
X125130952Y-54511904D01*
X125702380Y-55083333D01*
X125702380Y-54464285D01*
%TO.C,C3*%
X143607142Y-55416666D02*
X143654761Y-55464285D01*
X143702380Y-55607142D01*
X143702380Y-55702380D01*
X143654761Y-55845238D01*
X143559523Y-55940476D01*
X143464285Y-55988095D01*
X143273809Y-56035714D01*
X143130952Y-56035714D01*
X142940476Y-55988095D01*
X142845238Y-55940476D01*
X142750000Y-55845238D01*
X142702380Y-55702380D01*
X142702380Y-55607142D01*
X142750000Y-55464285D01*
X142797619Y-55416666D01*
X142702380Y-55083333D02*
X142702380Y-54464285D01*
X143083333Y-54797619D01*
X143083333Y-54654761D01*
X143130952Y-54559523D01*
X143178571Y-54511904D01*
X143273809Y-54464285D01*
X143511904Y-54464285D01*
X143607142Y-54511904D01*
X143654761Y-54559523D01*
X143702380Y-54654761D01*
X143702380Y-54940476D01*
X143654761Y-55035714D01*
X143607142Y-55083333D01*
%TO.C,P1*%
X106116380Y-40616095D02*
X105116380Y-40616095D01*
X105116380Y-40235142D01*
X105164000Y-40139904D01*
X105211619Y-40092285D01*
X105306857Y-40044666D01*
X105449714Y-40044666D01*
X105544952Y-40092285D01*
X105592571Y-40139904D01*
X105640190Y-40235142D01*
X105640190Y-40616095D01*
X106116380Y-39092285D02*
X106116380Y-39663714D01*
X106116380Y-39378000D02*
X105116380Y-39378000D01*
X105259238Y-39473238D01*
X105354476Y-39568476D01*
X105402095Y-39663714D01*
%TO.C,Panel-1*%
X82748380Y-68738380D02*
X81748380Y-68738380D01*
X81748380Y-68357428D01*
X81796000Y-68262190D01*
X81843619Y-68214571D01*
X81938857Y-68166952D01*
X82081714Y-68166952D01*
X82176952Y-68214571D01*
X82224571Y-68262190D01*
X82272190Y-68357428D01*
X82272190Y-68738380D01*
X82748380Y-67309809D02*
X82224571Y-67309809D01*
X82129333Y-67357428D01*
X82081714Y-67452666D01*
X82081714Y-67643142D01*
X82129333Y-67738380D01*
X82700761Y-67309809D02*
X82748380Y-67405047D01*
X82748380Y-67643142D01*
X82700761Y-67738380D01*
X82605523Y-67786000D01*
X82510285Y-67786000D01*
X82415047Y-67738380D01*
X82367428Y-67643142D01*
X82367428Y-67405047D01*
X82319809Y-67309809D01*
X82081714Y-66833619D02*
X82748380Y-66833619D01*
X82176952Y-66833619D02*
X82129333Y-66786000D01*
X82081714Y-66690761D01*
X82081714Y-66547904D01*
X82129333Y-66452666D01*
X82224571Y-66405047D01*
X82748380Y-66405047D01*
X82700761Y-65547904D02*
X82748380Y-65643142D01*
X82748380Y-65833619D01*
X82700761Y-65928857D01*
X82605523Y-65976476D01*
X82224571Y-65976476D01*
X82129333Y-65928857D01*
X82081714Y-65833619D01*
X82081714Y-65643142D01*
X82129333Y-65547904D01*
X82224571Y-65500285D01*
X82319809Y-65500285D01*
X82415047Y-65976476D01*
X82748380Y-64928857D02*
X82700761Y-65024095D01*
X82605523Y-65071714D01*
X81748380Y-65071714D01*
X82367428Y-64547904D02*
X82367428Y-63786000D01*
X82748380Y-62786000D02*
X82748380Y-63357428D01*
X82748380Y-63071714D02*
X81748380Y-63071714D01*
X81891238Y-63166952D01*
X81986476Y-63262190D01*
X82034095Y-63357428D01*
%TO.C,Panel-2*%
X110688380Y-68738380D02*
X109688380Y-68738380D01*
X109688380Y-68357428D01*
X109736000Y-68262190D01*
X109783619Y-68214571D01*
X109878857Y-68166952D01*
X110021714Y-68166952D01*
X110116952Y-68214571D01*
X110164571Y-68262190D01*
X110212190Y-68357428D01*
X110212190Y-68738380D01*
X110688380Y-67309809D02*
X110164571Y-67309809D01*
X110069333Y-67357428D01*
X110021714Y-67452666D01*
X110021714Y-67643142D01*
X110069333Y-67738380D01*
X110640761Y-67309809D02*
X110688380Y-67405047D01*
X110688380Y-67643142D01*
X110640761Y-67738380D01*
X110545523Y-67786000D01*
X110450285Y-67786000D01*
X110355047Y-67738380D01*
X110307428Y-67643142D01*
X110307428Y-67405047D01*
X110259809Y-67309809D01*
X110021714Y-66833619D02*
X110688380Y-66833619D01*
X110116952Y-66833619D02*
X110069333Y-66786000D01*
X110021714Y-66690761D01*
X110021714Y-66547904D01*
X110069333Y-66452666D01*
X110164571Y-66405047D01*
X110688380Y-66405047D01*
X110640761Y-65547904D02*
X110688380Y-65643142D01*
X110688380Y-65833619D01*
X110640761Y-65928857D01*
X110545523Y-65976476D01*
X110164571Y-65976476D01*
X110069333Y-65928857D01*
X110021714Y-65833619D01*
X110021714Y-65643142D01*
X110069333Y-65547904D01*
X110164571Y-65500285D01*
X110259809Y-65500285D01*
X110355047Y-65976476D01*
X110688380Y-64928857D02*
X110640761Y-65024095D01*
X110545523Y-65071714D01*
X109688380Y-65071714D01*
X110307428Y-64547904D02*
X110307428Y-63786000D01*
X109783619Y-63357428D02*
X109736000Y-63309809D01*
X109688380Y-63214571D01*
X109688380Y-62976476D01*
X109736000Y-62881238D01*
X109783619Y-62833619D01*
X109878857Y-62786000D01*
X109974095Y-62786000D01*
X110116952Y-62833619D01*
X110688380Y-63405047D01*
X110688380Y-62786000D01*
%TO.C,Panel-3*%
X138628380Y-68738380D02*
X137628380Y-68738380D01*
X137628380Y-68357428D01*
X137676000Y-68262190D01*
X137723619Y-68214571D01*
X137818857Y-68166952D01*
X137961714Y-68166952D01*
X138056952Y-68214571D01*
X138104571Y-68262190D01*
X138152190Y-68357428D01*
X138152190Y-68738380D01*
X138628380Y-67309809D02*
X138104571Y-67309809D01*
X138009333Y-67357428D01*
X137961714Y-67452666D01*
X137961714Y-67643142D01*
X138009333Y-67738380D01*
X138580761Y-67309809D02*
X138628380Y-67405047D01*
X138628380Y-67643142D01*
X138580761Y-67738380D01*
X138485523Y-67786000D01*
X138390285Y-67786000D01*
X138295047Y-67738380D01*
X138247428Y-67643142D01*
X138247428Y-67405047D01*
X138199809Y-67309809D01*
X137961714Y-66833619D02*
X138628380Y-66833619D01*
X138056952Y-66833619D02*
X138009333Y-66786000D01*
X137961714Y-66690761D01*
X137961714Y-66547904D01*
X138009333Y-66452666D01*
X138104571Y-66405047D01*
X138628380Y-66405047D01*
X138580761Y-65547904D02*
X138628380Y-65643142D01*
X138628380Y-65833619D01*
X138580761Y-65928857D01*
X138485523Y-65976476D01*
X138104571Y-65976476D01*
X138009333Y-65928857D01*
X137961714Y-65833619D01*
X137961714Y-65643142D01*
X138009333Y-65547904D01*
X138104571Y-65500285D01*
X138199809Y-65500285D01*
X138295047Y-65976476D01*
X138628380Y-64928857D02*
X138580761Y-65024095D01*
X138485523Y-65071714D01*
X137628380Y-65071714D01*
X138247428Y-64547904D02*
X138247428Y-63786000D01*
X137628380Y-63405047D02*
X137628380Y-62786000D01*
X138009333Y-63119333D01*
X138009333Y-62976476D01*
X138056952Y-62881238D01*
X138104571Y-62833619D01*
X138199809Y-62786000D01*
X138437904Y-62786000D01*
X138533142Y-62833619D01*
X138580761Y-62881238D01*
X138628380Y-62976476D01*
X138628380Y-63262190D01*
X138580761Y-63357428D01*
X138533142Y-63405047D01*
%TO.C,R1*%
X105497333Y-45538380D02*
X105164000Y-45062190D01*
X104925904Y-45538380D02*
X104925904Y-44538380D01*
X105306857Y-44538380D01*
X105402095Y-44586000D01*
X105449714Y-44633619D01*
X105497333Y-44728857D01*
X105497333Y-44871714D01*
X105449714Y-44966952D01*
X105402095Y-45014571D01*
X105306857Y-45062190D01*
X104925904Y-45062190D01*
X106449714Y-45538380D02*
X105878285Y-45538380D01*
X106164000Y-45538380D02*
X106164000Y-44538380D01*
X106068761Y-44681238D01*
X105973523Y-44776476D01*
X105878285Y-44824095D01*
%TO.C,P5*%
X110005904Y-51399380D02*
X110005904Y-50399380D01*
X110386857Y-50399380D01*
X110482095Y-50447000D01*
X110529714Y-50494619D01*
X110577333Y-50589857D01*
X110577333Y-50732714D01*
X110529714Y-50827952D01*
X110482095Y-50875571D01*
X110386857Y-50923190D01*
X110005904Y-50923190D01*
X111482095Y-50399380D02*
X111005904Y-50399380D01*
X110958285Y-50875571D01*
X111005904Y-50827952D01*
X111101142Y-50780333D01*
X111339238Y-50780333D01*
X111434476Y-50827952D01*
X111482095Y-50875571D01*
X111529714Y-50970809D01*
X111529714Y-51208904D01*
X111482095Y-51304142D01*
X111434476Y-51351761D01*
X111339238Y-51399380D01*
X111101142Y-51399380D01*
X111005904Y-51351761D01*
X110958285Y-51304142D01*
D11*
X113538142Y-45224000D02*
X113395285Y-45152571D01*
X113181000Y-45152571D01*
X112966714Y-45224000D01*
X112823857Y-45366857D01*
X112752428Y-45509714D01*
X112681000Y-45795428D01*
X112681000Y-46009714D01*
X112752428Y-46295428D01*
X112823857Y-46438285D01*
X112966714Y-46581142D01*
X113181000Y-46652571D01*
X113323857Y-46652571D01*
X113538142Y-46581142D01*
X113609571Y-46509714D01*
X113609571Y-46009714D01*
X113323857Y-46009714D01*
X114252428Y-46652571D02*
X114252428Y-45152571D01*
X115109571Y-46652571D01*
X115109571Y-45152571D01*
X115823857Y-46652571D02*
X115823857Y-45152571D01*
X116181000Y-45152571D01*
X116395285Y-45224000D01*
X116538142Y-45366857D01*
X116609571Y-45509714D01*
X116681000Y-45795428D01*
X116681000Y-46009714D01*
X116609571Y-46295428D01*
X116538142Y-46438285D01*
X116395285Y-46581142D01*
X116181000Y-46652571D01*
X115823857Y-46652571D01*
D14*
%TO.C,C5*%
X96083333Y-39107142D02*
X96035714Y-39154761D01*
X95892857Y-39202380D01*
X95797619Y-39202380D01*
X95654761Y-39154761D01*
X95559523Y-39059523D01*
X95511904Y-38964285D01*
X95464285Y-38773809D01*
X95464285Y-38630952D01*
X95511904Y-38440476D01*
X95559523Y-38345238D01*
X95654761Y-38250000D01*
X95797619Y-38202380D01*
X95892857Y-38202380D01*
X96035714Y-38250000D01*
X96083333Y-38297619D01*
X96988095Y-38202380D02*
X96511904Y-38202380D01*
X96464285Y-38678571D01*
X96511904Y-38630952D01*
X96607142Y-38583333D01*
X96845238Y-38583333D01*
X96940476Y-38630952D01*
X96988095Y-38678571D01*
X97035714Y-38773809D01*
X97035714Y-39011904D01*
X96988095Y-39107142D01*
X96940476Y-39154761D01*
X96845238Y-39202380D01*
X96607142Y-39202380D01*
X96511904Y-39154761D01*
X96464285Y-39107142D01*
%TO.C,P3*%
X118641904Y-51399380D02*
X118641904Y-50399380D01*
X119022857Y-50399380D01*
X119118095Y-50447000D01*
X119165714Y-50494619D01*
X119213333Y-50589857D01*
X119213333Y-50732714D01*
X119165714Y-50827952D01*
X119118095Y-50875571D01*
X119022857Y-50923190D01*
X118641904Y-50923190D01*
X119546666Y-50399380D02*
X120165714Y-50399380D01*
X119832380Y-50780333D01*
X119975238Y-50780333D01*
X120070476Y-50827952D01*
X120118095Y-50875571D01*
X120165714Y-50970809D01*
X120165714Y-51208904D01*
X120118095Y-51304142D01*
X120070476Y-51351761D01*
X119975238Y-51399380D01*
X119689523Y-51399380D01*
X119594285Y-51351761D01*
X119546666Y-51304142D01*
D11*
X122297142Y-46652571D02*
X121797142Y-45938285D01*
X121440000Y-46652571D02*
X121440000Y-45152571D01*
X122011428Y-45152571D01*
X122154285Y-45224000D01*
X122225714Y-45295428D01*
X122297142Y-45438285D01*
X122297142Y-45652571D01*
X122225714Y-45795428D01*
X122154285Y-45866857D01*
X122011428Y-45938285D01*
X121440000Y-45938285D01*
X122797142Y-46652571D02*
X123582857Y-45652571D01*
X122797142Y-45652571D02*
X123582857Y-46652571D01*
X124154285Y-46652571D02*
X124154285Y-45152571D01*
X124511428Y-45152571D01*
X124725714Y-45224000D01*
X124868571Y-45366857D01*
X124940000Y-45509714D01*
X125011428Y-45795428D01*
X125011428Y-46009714D01*
X124940000Y-46295428D01*
X124868571Y-46438285D01*
X124725714Y-46581142D01*
X124511428Y-46652571D01*
X124154285Y-46652571D01*
D14*
%TO.C,C6*%
X85913142Y-41949666D02*
X85960761Y-41997285D01*
X86008380Y-42140142D01*
X86008380Y-42235380D01*
X85960761Y-42378238D01*
X85865523Y-42473476D01*
X85770285Y-42521095D01*
X85579809Y-42568714D01*
X85436952Y-42568714D01*
X85246476Y-42521095D01*
X85151238Y-42473476D01*
X85056000Y-42378238D01*
X85008380Y-42235380D01*
X85008380Y-42140142D01*
X85056000Y-41997285D01*
X85103619Y-41949666D01*
X85008380Y-41092523D02*
X85008380Y-41283000D01*
X85056000Y-41378238D01*
X85103619Y-41425857D01*
X85246476Y-41521095D01*
X85436952Y-41568714D01*
X85817904Y-41568714D01*
X85913142Y-41521095D01*
X85960761Y-41473476D01*
X86008380Y-41378238D01*
X86008380Y-41187761D01*
X85960761Y-41092523D01*
X85913142Y-41044904D01*
X85817904Y-40997285D01*
X85579809Y-40997285D01*
X85484571Y-41044904D01*
X85436952Y-41092523D01*
X85389333Y-41187761D01*
X85389333Y-41378238D01*
X85436952Y-41473476D01*
X85484571Y-41521095D01*
X85579809Y-41568714D01*
%TO.C,U1*%
X104592380Y-55117904D02*
X105401904Y-55117904D01*
X105497142Y-55070285D01*
X105544761Y-55022666D01*
X105592380Y-54927428D01*
X105592380Y-54736952D01*
X105544761Y-54641714D01*
X105497142Y-54594095D01*
X105401904Y-54546476D01*
X104592380Y-54546476D01*
X105592380Y-53546476D02*
X105592380Y-54117904D01*
X105592380Y-53832190D02*
X104592380Y-53832190D01*
X104735238Y-53927428D01*
X104830476Y-54022666D01*
X104878095Y-54117904D01*
%TO.C,U2*%
X122372380Y-55117904D02*
X123181904Y-55117904D01*
X123277142Y-55070285D01*
X123324761Y-55022666D01*
X123372380Y-54927428D01*
X123372380Y-54736952D01*
X123324761Y-54641714D01*
X123277142Y-54594095D01*
X123181904Y-54546476D01*
X122372380Y-54546476D01*
X122467619Y-54117904D02*
X122420000Y-54070285D01*
X122372380Y-53975047D01*
X122372380Y-53736952D01*
X122420000Y-53641714D01*
X122467619Y-53594095D01*
X122562857Y-53546476D01*
X122658095Y-53546476D01*
X122800952Y-53594095D01*
X123372380Y-54165523D01*
X123372380Y-53546476D01*
%TO.C,U3*%
X140152380Y-55117904D02*
X140961904Y-55117904D01*
X141057142Y-55070285D01*
X141104761Y-55022666D01*
X141152380Y-54927428D01*
X141152380Y-54736952D01*
X141104761Y-54641714D01*
X141057142Y-54594095D01*
X140961904Y-54546476D01*
X140152380Y-54546476D01*
X140152380Y-54165523D02*
X140152380Y-53546476D01*
X140533333Y-53879809D01*
X140533333Y-53736952D01*
X140580952Y-53641714D01*
X140628571Y-53594095D01*
X140723809Y-53546476D01*
X140961904Y-53546476D01*
X141057142Y-53594095D01*
X141104761Y-53641714D01*
X141152380Y-53736952D01*
X141152380Y-54022666D01*
X141104761Y-54117904D01*
X141057142Y-54165523D01*
%TO.C,U4*%
X157932380Y-55117904D02*
X158741904Y-55117904D01*
X158837142Y-55070285D01*
X158884761Y-55022666D01*
X158932380Y-54927428D01*
X158932380Y-54736952D01*
X158884761Y-54641714D01*
X158837142Y-54594095D01*
X158741904Y-54546476D01*
X157932380Y-54546476D01*
X158265714Y-53641714D02*
X158932380Y-53641714D01*
X157884761Y-53879809D02*
X158599047Y-54117904D01*
X158599047Y-53498857D01*
%TO.C,C4*%
X161107142Y-55416666D02*
X161154761Y-55464285D01*
X161202380Y-55607142D01*
X161202380Y-55702380D01*
X161154761Y-55845238D01*
X161059523Y-55940476D01*
X160964285Y-55988095D01*
X160773809Y-56035714D01*
X160630952Y-56035714D01*
X160440476Y-55988095D01*
X160345238Y-55940476D01*
X160250000Y-55845238D01*
X160202380Y-55702380D01*
X160202380Y-55607142D01*
X160250000Y-55464285D01*
X160297619Y-55416666D01*
X160535714Y-54559523D02*
X161202380Y-54559523D01*
X160154761Y-54797619D02*
X160869047Y-55035714D01*
X160869047Y-54416666D01*
%TO.C,*%
%TO.C,J6*%
X58252380Y-58753333D02*
X58966666Y-58753333D01*
X59109523Y-58800952D01*
X59204761Y-58896190D01*
X59252380Y-59039047D01*
X59252380Y-59134285D01*
X58252380Y-57848571D02*
X58252380Y-58039047D01*
X58300000Y-58134285D01*
X58347619Y-58181904D01*
X58490476Y-58277142D01*
X58680952Y-58324761D01*
X59061904Y-58324761D01*
X59157142Y-58277142D01*
X59204761Y-58229523D01*
X59252380Y-58134285D01*
X59252380Y-57943809D01*
X59204761Y-57848571D01*
X59157142Y-57800952D01*
X59061904Y-57753333D01*
X58823809Y-57753333D01*
X58728571Y-57800952D01*
X58680952Y-57848571D01*
X58633333Y-57943809D01*
X58633333Y-58134285D01*
X58680952Y-58229523D01*
X58728571Y-58277142D01*
X58823809Y-58324761D01*
%TO.C,J1*%
X64431666Y-57562380D02*
X64431666Y-58276666D01*
X64384047Y-58419523D01*
X64288809Y-58514761D01*
X64145952Y-58562380D01*
X64050714Y-58562380D01*
X65431666Y-58562380D02*
X64860238Y-58562380D01*
X65145952Y-58562380D02*
X65145952Y-57562380D01*
X65050714Y-57705238D01*
X64955476Y-57800476D01*
X64860238Y-57848095D01*
%TO.C,J3*%
X65126666Y-48412380D02*
X65126666Y-49126666D01*
X65079047Y-49269523D01*
X64983809Y-49364761D01*
X64840952Y-49412380D01*
X64745714Y-49412380D01*
X65507619Y-48412380D02*
X66126666Y-48412380D01*
X65793333Y-48793333D01*
X65936190Y-48793333D01*
X66031428Y-48840952D01*
X66079047Y-48888571D01*
X66126666Y-48983809D01*
X66126666Y-49221904D01*
X66079047Y-49317142D01*
X66031428Y-49364761D01*
X65936190Y-49412380D01*
X65650476Y-49412380D01*
X65555238Y-49364761D01*
X65507619Y-49317142D01*
%TO.C,C7*%
X84257142Y-52234287D02*
X84304761Y-52281906D01*
X84352380Y-52424763D01*
X84352380Y-52520001D01*
X84304761Y-52662859D01*
X84209523Y-52758097D01*
X84114285Y-52805716D01*
X83923809Y-52853335D01*
X83780952Y-52853335D01*
X83590476Y-52805716D01*
X83495238Y-52758097D01*
X83400000Y-52662859D01*
X83352380Y-52520001D01*
X83352380Y-52424763D01*
X83400000Y-52281906D01*
X83447619Y-52234287D01*
X83352380Y-51900954D02*
X83352380Y-51234287D01*
X84352380Y-51662859D01*
%TO.C,J5*%
X58252380Y-46053333D02*
X58966666Y-46053333D01*
X59109523Y-46100952D01*
X59204761Y-46196190D01*
X59252380Y-46339047D01*
X59252380Y-46434285D01*
X58252380Y-45100952D02*
X58252380Y-45577142D01*
X58728571Y-45624761D01*
X58680952Y-45577142D01*
X58633333Y-45481904D01*
X58633333Y-45243809D01*
X58680952Y-45148571D01*
X58728571Y-45100952D01*
X58823809Y-45053333D01*
X59061904Y-45053333D01*
X59157142Y-45100952D01*
X59204761Y-45148571D01*
X59252380Y-45243809D01*
X59252380Y-45481904D01*
X59204761Y-45577142D01*
X59157142Y-45624761D01*
%TO.C,C8*%
X74597142Y-52191666D02*
X74644761Y-52239285D01*
X74692380Y-52382142D01*
X74692380Y-52477380D01*
X74644761Y-52620238D01*
X74549523Y-52715476D01*
X74454285Y-52763095D01*
X74263809Y-52810714D01*
X74120952Y-52810714D01*
X73930476Y-52763095D01*
X73835238Y-52715476D01*
X73740000Y-52620238D01*
X73692380Y-52477380D01*
X73692380Y-52382142D01*
X73740000Y-52239285D01*
X73787619Y-52191666D01*
X74120952Y-51620238D02*
X74073333Y-51715476D01*
X74025714Y-51763095D01*
X73930476Y-51810714D01*
X73882857Y-51810714D01*
X73787619Y-51763095D01*
X73740000Y-51715476D01*
X73692380Y-51620238D01*
X73692380Y-51429761D01*
X73740000Y-51334523D01*
X73787619Y-51286904D01*
X73882857Y-51239285D01*
X73930476Y-51239285D01*
X74025714Y-51286904D01*
X74073333Y-51334523D01*
X74120952Y-51429761D01*
X74120952Y-51620238D01*
X74168571Y-51715476D01*
X74216190Y-51763095D01*
X74311428Y-51810714D01*
X74501904Y-51810714D01*
X74597142Y-51763095D01*
X74644761Y-51715476D01*
X74692380Y-51620238D01*
X74692380Y-51429761D01*
X74644761Y-51334523D01*
X74597142Y-51286904D01*
X74501904Y-51239285D01*
X74311428Y-51239285D01*
X74216190Y-51286904D01*
X74168571Y-51334523D01*
X74120952Y-51429761D01*
%TO.C,J4*%
X76626666Y-48412380D02*
X76626666Y-49126666D01*
X76579047Y-49269523D01*
X76483809Y-49364761D01*
X76340952Y-49412380D01*
X76245714Y-49412380D01*
X77531428Y-48745714D02*
X77531428Y-49412380D01*
X77293333Y-48364761D02*
X77055238Y-49079047D01*
X77674285Y-49079047D01*
%TO.C,J2*%
X75861666Y-57562380D02*
X75861666Y-58276666D01*
X75814047Y-58419523D01*
X75718809Y-58514761D01*
X75575952Y-58562380D01*
X75480714Y-58562380D01*
X76290238Y-57657619D02*
X76337857Y-57610000D01*
X76433095Y-57562380D01*
X76671190Y-57562380D01*
X76766428Y-57610000D01*
X76814047Y-57657619D01*
X76861666Y-57752857D01*
X76861666Y-57848095D01*
X76814047Y-57990952D01*
X76242619Y-58562380D01*
X76861666Y-58562380D01*
D16*
%TO.C,C1*%
X106882000Y-58170578D02*
X106882000Y-57653422D01*
X105462000Y-58170578D02*
X105462000Y-57653422D01*
%TO.C,C2*%
X123242000Y-58170578D02*
X123242000Y-57653422D01*
X124662000Y-58170578D02*
X124662000Y-57653422D01*
%TO.C,C3*%
X142442000Y-58170578D02*
X142442000Y-57653422D01*
X141022000Y-58170578D02*
X141022000Y-57653422D01*
D14*
%TO.C,P1*%
X157480000Y-39370000D02*
X106680000Y-39370000D01*
X106400000Y-44730000D02*
X107950000Y-44730000D01*
X109220000Y-44450000D02*
X157480000Y-44450000D01*
X106680000Y-39370000D02*
X106680000Y-41910000D01*
X157480000Y-39370000D02*
X157480000Y-44450000D01*
X106400000Y-43180000D02*
X106400000Y-44730000D01*
X109220000Y-41910000D02*
X109220000Y-44450000D01*
X106680000Y-41910000D02*
X109220000Y-41910000D01*
D16*
%TO.C,Panel-1*%
X83300000Y-70711000D02*
X83300000Y-68171000D01*
X112030000Y-70461000D02*
X83550000Y-70461000D01*
X83550000Y-61111000D02*
X112030000Y-61111000D01*
X83300000Y-70711000D02*
X85840000Y-70711000D01*
X112030000Y-61111000D02*
X112030000Y-70461000D01*
X83550000Y-70461000D02*
X83550000Y-61111000D01*
%TO.C,Panel-2*%
X111490000Y-70461000D02*
X111490000Y-61111000D01*
X139970000Y-70461000D02*
X111490000Y-70461000D01*
X139970000Y-61111000D02*
X139970000Y-70461000D01*
X111490000Y-61111000D02*
X139970000Y-61111000D01*
X111240000Y-70711000D02*
X113780000Y-70711000D01*
X111240000Y-70711000D02*
X111240000Y-68171000D01*
%TO.C,Panel-3*%
X139430000Y-61111000D02*
X167910000Y-61111000D01*
X139180000Y-70711000D02*
X141720000Y-70711000D01*
X167910000Y-61111000D02*
X167910000Y-70461000D01*
X139180000Y-70711000D02*
X139180000Y-68171000D01*
X167910000Y-70461000D02*
X139430000Y-70461000D01*
X139430000Y-70461000D02*
X139430000Y-61111000D01*
D14*
%TO.C,P20*%
X105366000Y-41910000D02*
G75*
G03*
X105366000Y-41910000I-2286000J0D01*
G01*
%TO.C,P21*%
X163366000Y-41910000D02*
G75*
G03*
X163366000Y-41910000I-2286000J0D01*
G01*
D16*
%TO.C,R1*%
X105405422Y-47446000D02*
X105922578Y-47446000D01*
X105405422Y-46026000D02*
X105922578Y-46026000D01*
D14*
%TO.C,P5*%
X109220000Y-45847000D02*
X109220000Y-47397000D01*
X115244000Y-47397000D02*
X109194000Y-47397000D01*
D16*
%TO.C,C5*%
X90367000Y-39308000D02*
X91670000Y-39308000D01*
X89509000Y-41109000D02*
X91670000Y-41109000D01*
X91545000Y-38508000D02*
X93875000Y-38508000D01*
X90226000Y-39468000D02*
X91670000Y-39468000D01*
X93750000Y-41069000D02*
X95905000Y-41069000D01*
X93750000Y-39388000D02*
X95126000Y-39388000D01*
X91360000Y-38588000D02*
X94060000Y-38588000D01*
X93750000Y-40909000D02*
X95877000Y-40909000D01*
X93750000Y-41029000D02*
X95899000Y-41029000D01*
X93750000Y-40148000D02*
X95626000Y-40148000D01*
X90820000Y-38908000D02*
X94600000Y-38908000D01*
X93750000Y-40788000D02*
X95851000Y-40788000D01*
X90996000Y-38788000D02*
X94424000Y-38788000D01*
X93750000Y-39668000D02*
X95346000Y-39668000D01*
X90260000Y-39428000D02*
X91670000Y-39428000D01*
X89543000Y-40909000D02*
X91670000Y-40909000D01*
X89528000Y-40989000D02*
X91670000Y-40989000D01*
X90162000Y-39548000D02*
X91670000Y-39548000D01*
X89480000Y-41469000D02*
X95940000Y-41469000D01*
X91448000Y-38548000D02*
X93972000Y-38548000D01*
X89677000Y-40428000D02*
X91670000Y-40428000D01*
X93750000Y-39788000D02*
X95426000Y-39788000D01*
X90934000Y-38828000D02*
X94486000Y-38828000D01*
X89504000Y-41149000D02*
X91670000Y-41149000D01*
X93750000Y-41269000D02*
X95928000Y-41269000D01*
X89649000Y-40508000D02*
X91670000Y-40508000D01*
X89663000Y-40468000D02*
X91670000Y-40468000D01*
X90871000Y-45049241D02*
X90871000Y-44419241D01*
X93750000Y-39628000D02*
X95317000Y-39628000D01*
X89692000Y-40388000D02*
X91670000Y-40388000D01*
X89515000Y-41069000D02*
X91670000Y-41069000D01*
X93750000Y-39588000D02*
X95288000Y-39588000D01*
X93750000Y-39988000D02*
X95544000Y-39988000D01*
X89480000Y-41509000D02*
X95940000Y-41509000D01*
X89724000Y-40308000D02*
X91670000Y-40308000D01*
X90046000Y-39708000D02*
X91670000Y-39708000D01*
X93750000Y-40228000D02*
X95662000Y-40228000D01*
X89569000Y-40788000D02*
X91670000Y-40788000D01*
X90715000Y-38988000D02*
X94705000Y-38988000D01*
X89499000Y-41189000D02*
X91670000Y-41189000D01*
X93750000Y-39268000D02*
X95015000Y-39268000D01*
X89740000Y-40268000D02*
X91670000Y-40268000D01*
X93750000Y-40548000D02*
X95784000Y-40548000D01*
X91651000Y-38468000D02*
X93769000Y-38468000D01*
X93750000Y-40588000D02*
X95796000Y-40588000D01*
X89794000Y-40148000D02*
X91670000Y-40148000D01*
X91201000Y-38668000D02*
X94219000Y-38668000D01*
X90486000Y-39188000D02*
X94934000Y-39188000D01*
X89898000Y-39948000D02*
X91670000Y-39948000D01*
X89600000Y-40668000D02*
X91670000Y-40668000D01*
X93750000Y-39908000D02*
X95500000Y-39908000D01*
X89708000Y-40348000D02*
X91670000Y-40348000D01*
X89488000Y-41309000D02*
X91670000Y-41309000D01*
X90132000Y-39588000D02*
X91670000Y-39588000D01*
X93750000Y-39308000D02*
X95053000Y-39308000D01*
X89589000Y-40708000D02*
X91670000Y-40708000D01*
X89854000Y-40028000D02*
X91670000Y-40028000D01*
X93750000Y-41309000D02*
X95932000Y-41309000D01*
X93750000Y-40708000D02*
X95831000Y-40708000D01*
X93750000Y-39828000D02*
X95452000Y-39828000D01*
X89551000Y-40869000D02*
X91670000Y-40869000D01*
X92308000Y-38308000D02*
X93112000Y-38308000D01*
X89579000Y-40748000D02*
X91670000Y-40748000D01*
X89814000Y-40108000D02*
X91670000Y-40108000D01*
X93750000Y-40108000D02*
X95606000Y-40108000D01*
X93750000Y-40388000D02*
X95728000Y-40388000D01*
X89758000Y-40228000D02*
X91670000Y-40228000D01*
X89994000Y-39788000D02*
X91670000Y-39788000D01*
X89482000Y-41429000D02*
X95938000Y-41429000D01*
X89486000Y-41349000D02*
X95934000Y-41349000D01*
X93750000Y-40869000D02*
X95869000Y-40869000D01*
X93750000Y-39428000D02*
X95160000Y-39428000D01*
X93750000Y-39508000D02*
X95226000Y-39508000D01*
X91770000Y-38428000D02*
X93650000Y-38428000D01*
X90876000Y-38868000D02*
X94544000Y-38868000D01*
X93750000Y-40508000D02*
X95771000Y-40508000D01*
X90766000Y-38948000D02*
X94654000Y-38948000D01*
X89483000Y-41389000D02*
X95937000Y-41389000D01*
X93750000Y-40989000D02*
X95892000Y-40989000D01*
X93750000Y-41189000D02*
X95921000Y-41189000D01*
X90020000Y-39748000D02*
X91670000Y-39748000D01*
X89968000Y-39828000D02*
X91670000Y-39828000D01*
X91908000Y-38388000D02*
X93512000Y-38388000D01*
X89495000Y-41229000D02*
X91670000Y-41229000D01*
X90573000Y-39108000D02*
X94847000Y-39108000D01*
X93750000Y-39748000D02*
X95400000Y-39748000D01*
X90528000Y-39148000D02*
X94892000Y-39148000D01*
X90103000Y-39628000D02*
X91670000Y-39628000D01*
X93750000Y-41149000D02*
X95916000Y-41149000D01*
X89624000Y-40588000D02*
X91670000Y-40588000D01*
X93750000Y-40628000D02*
X95808000Y-40628000D01*
X90074000Y-39668000D02*
X91670000Y-39668000D01*
X93750000Y-39708000D02*
X95374000Y-39708000D01*
X90405000Y-39268000D02*
X91670000Y-39268000D01*
X93750000Y-41229000D02*
X95925000Y-41229000D01*
X89636000Y-40548000D02*
X91670000Y-40548000D01*
X93750000Y-39948000D02*
X95522000Y-39948000D01*
X93750000Y-40748000D02*
X95841000Y-40748000D01*
X90294000Y-39388000D02*
X91670000Y-39388000D01*
X92077000Y-38348000D02*
X93343000Y-38348000D01*
X90194000Y-39508000D02*
X91670000Y-39508000D01*
X91060000Y-38748000D02*
X94360000Y-38748000D01*
X89876000Y-39988000D02*
X91670000Y-39988000D01*
X89776000Y-40188000D02*
X91670000Y-40188000D01*
X89480000Y-41549000D02*
X95940000Y-41549000D01*
X89612000Y-40628000D02*
X91670000Y-40628000D01*
X93750000Y-39868000D02*
X95476000Y-39868000D01*
X89535000Y-40949000D02*
X91670000Y-40949000D01*
X90445000Y-39228000D02*
X94975000Y-39228000D01*
X90556000Y-44734241D02*
X91186000Y-44734241D01*
X93750000Y-40428000D02*
X95743000Y-40428000D01*
X93750000Y-40949000D02*
X95885000Y-40949000D01*
X90618000Y-39068000D02*
X94802000Y-39068000D01*
X93750000Y-39348000D02*
X95090000Y-39348000D01*
X90330000Y-39348000D02*
X91670000Y-39348000D01*
X93750000Y-41109000D02*
X95911000Y-41109000D01*
X93750000Y-40468000D02*
X95757000Y-40468000D01*
X89920000Y-39908000D02*
X91670000Y-39908000D01*
X93750000Y-39468000D02*
X95194000Y-39468000D01*
X91278000Y-38628000D02*
X94142000Y-38628000D01*
X89834000Y-40068000D02*
X91670000Y-40068000D01*
X93750000Y-40268000D02*
X95680000Y-40268000D01*
X93750000Y-40068000D02*
X95586000Y-40068000D01*
X89492000Y-41269000D02*
X91670000Y-41269000D01*
X90666000Y-39028000D02*
X94754000Y-39028000D01*
X89944000Y-39868000D02*
X91670000Y-39868000D01*
X93750000Y-40348000D02*
X95712000Y-40348000D01*
X93750000Y-40308000D02*
X95696000Y-40308000D01*
X93750000Y-40668000D02*
X95820000Y-40668000D01*
X93750000Y-40028000D02*
X95566000Y-40028000D01*
X93750000Y-39548000D02*
X95258000Y-39548000D01*
X93750000Y-40188000D02*
X95644000Y-40188000D01*
X93750000Y-40828000D02*
X95860000Y-40828000D01*
X91129000Y-38708000D02*
X94291000Y-38708000D01*
X89560000Y-40828000D02*
X91670000Y-40828000D01*
X89521000Y-41029000D02*
X91670000Y-41029000D01*
X95980000Y-41549000D02*
G75*
G03*
X95980000Y-41549000I-3270000J0D01*
G01*
D14*
%TO.C,P3*%
X120930000Y-45847000D02*
X120930000Y-47397000D01*
X120930000Y-47397000D02*
X114880000Y-47397000D01*
D16*
%TO.C,C6*%
X86466000Y-42385064D02*
X86466000Y-41180936D01*
X88286000Y-42385064D02*
X88286000Y-41180936D01*
D14*
%TO.C,P2*%
X85217000Y-45414000D02*
X86767000Y-45414000D01*
X85217000Y-49530000D02*
X85217000Y-45414000D01*
%TO.C,P4*%
X85217000Y-52324000D02*
X85217000Y-49224000D01*
X86767000Y-52324000D02*
X85217000Y-52324000D01*
%TO.C,P6*%
X90170000Y-55372000D02*
X90170000Y-52832000D01*
X87630000Y-52832000D02*
X90170000Y-52832000D01*
X85090000Y-52832000D02*
X87630000Y-52832000D01*
X85090000Y-52832000D02*
X85090000Y-55372000D01*
%TO.C,P8*%
X90170000Y-60452000D02*
X90170000Y-57912000D01*
X85090000Y-60452000D02*
X87630000Y-60452000D01*
X85090000Y-57912000D02*
X85090000Y-60452000D01*
X87630000Y-60452000D02*
X90170000Y-60452000D01*
D16*
%TO.C,U1*%
X91280000Y-54356000D02*
X91280000Y-58216000D01*
X104300000Y-54356000D02*
X104300000Y-58216000D01*
X104300000Y-58216000D02*
X104065000Y-58216000D01*
X104300000Y-50496000D02*
X104065000Y-50496000D01*
X91280000Y-50496000D02*
X91515000Y-50496000D01*
X91280000Y-54356000D02*
X91280000Y-50496000D01*
X104065000Y-50496000D02*
X104065000Y-48681000D01*
X104300000Y-54356000D02*
X104300000Y-50496000D01*
X91280000Y-58216000D02*
X91515000Y-58216000D01*
%TO.C,U2*%
X122080000Y-50496000D02*
X121845000Y-50496000D01*
X109060000Y-50496000D02*
X109295000Y-50496000D01*
X109060000Y-54356000D02*
X109060000Y-58216000D01*
X109060000Y-58216000D02*
X109295000Y-58216000D01*
X121845000Y-50496000D02*
X121845000Y-48681000D01*
X122080000Y-54356000D02*
X122080000Y-50496000D01*
X109060000Y-54356000D02*
X109060000Y-50496000D01*
X122080000Y-54356000D02*
X122080000Y-58216000D01*
X122080000Y-58216000D02*
X121845000Y-58216000D01*
%TO.C,U3*%
X126840000Y-58216000D02*
X127075000Y-58216000D01*
X139860000Y-54356000D02*
X139860000Y-50496000D01*
X139860000Y-58216000D02*
X139625000Y-58216000D01*
X139860000Y-54356000D02*
X139860000Y-58216000D01*
X126840000Y-54356000D02*
X126840000Y-50496000D01*
X126840000Y-50496000D02*
X127075000Y-50496000D01*
X126840000Y-54356000D02*
X126840000Y-58216000D01*
X139625000Y-50496000D02*
X139625000Y-48681000D01*
X139860000Y-50496000D02*
X139625000Y-50496000D01*
%TO.C,U4*%
X157640000Y-58216000D02*
X157405000Y-58216000D01*
X144620000Y-58216000D02*
X144855000Y-58216000D01*
X157640000Y-50496000D02*
X157405000Y-50496000D01*
X157405000Y-50496000D02*
X157405000Y-48681000D01*
X157640000Y-54356000D02*
X157640000Y-58216000D01*
X157640000Y-54356000D02*
X157640000Y-50496000D01*
X144620000Y-50496000D02*
X144855000Y-50496000D01*
X144620000Y-54356000D02*
X144620000Y-58216000D01*
X144620000Y-54356000D02*
X144620000Y-50496000D01*
D14*
%TO.C,REF\u002A\u002A*%
X100429460Y-46960520D02*
X100708860Y-45898800D01*
X99421080Y-41080420D02*
X98951180Y-40879760D01*
X99050240Y-43549300D02*
X99250900Y-43351180D01*
X96639780Y-41839880D02*
X96469600Y-42319940D01*
X96469600Y-43320700D02*
X96609300Y-43719480D01*
X98750520Y-43699160D02*
X99050240Y-43549300D01*
X96360380Y-45588920D02*
X95999700Y-45459380D01*
X98349200Y-41799240D02*
X97950420Y-41900840D01*
X97460200Y-41039780D02*
X96909020Y-40770540D01*
X97739600Y-46300120D02*
X97919940Y-46460140D01*
X95468840Y-46549040D02*
X95669500Y-46869080D01*
X97729440Y-46980840D02*
X97409400Y-47008780D01*
X98600660Y-47018940D02*
X98610820Y-47008780D01*
X96520400Y-46279800D02*
X96469600Y-45870860D01*
X97950420Y-41900840D02*
X97549100Y-42248820D01*
X97698960Y-43501040D02*
X98049480Y-43699160D01*
X96360380Y-44290980D02*
X96898860Y-44809140D01*
X95440900Y-46201060D02*
X95468840Y-46549040D01*
X99939240Y-40818800D02*
X99421080Y-41080420D01*
X97450040Y-43198780D02*
X97698960Y-43501040D01*
X95910800Y-43120040D02*
X96469600Y-43320700D01*
X99250900Y-43351180D02*
X99400760Y-42949860D01*
X97409400Y-47008780D02*
X97058880Y-46899560D01*
X97109680Y-45929280D02*
X97350980Y-46170580D01*
X97350980Y-46170580D02*
X97739600Y-46300120D01*
X97698960Y-45469540D02*
X97378920Y-45459380D01*
X96020020Y-45449220D02*
X95771100Y-45469540D01*
X98648920Y-46180740D02*
X99438860Y-46170580D01*
X96469600Y-45870860D02*
X96360380Y-45588920D01*
X95529800Y-45710840D02*
X95440900Y-46201060D01*
X99469340Y-44489100D02*
X99908760Y-44819300D01*
X100899360Y-42510440D02*
X100340560Y-42370740D01*
X97399240Y-42700940D02*
X97450040Y-43198780D01*
X97879300Y-40869600D02*
X97460200Y-41039780D01*
X96909020Y-40770540D02*
X96390860Y-41298860D01*
X100289760Y-43379120D02*
X100899360Y-43191160D01*
X101018740Y-46970680D02*
X101359100Y-45520340D01*
X96469600Y-42319940D02*
X95920960Y-42419000D01*
X98798780Y-41850040D02*
X98349200Y-41799240D01*
X97919940Y-46460140D02*
X97960580Y-46759860D01*
X97378920Y-45459380D02*
X97140160Y-45660040D01*
X99908760Y-44819300D02*
X100381200Y-44329080D01*
X98600660Y-45449220D02*
X98600660Y-47018940D01*
X100381200Y-44329080D02*
X100099260Y-43849020D01*
X99139140Y-44679600D02*
X99469340Y-44489100D01*
X98781000Y-40338740D02*
X98090120Y-40320960D01*
X96449280Y-46739540D02*
X96520400Y-46279800D01*
X99449020Y-46180740D02*
X99449020Y-46170580D01*
X98750520Y-43699160D02*
X99149300Y-44699920D01*
X100708860Y-45898800D02*
X101018740Y-46970680D01*
X100899360Y-43191160D02*
X100899360Y-42510440D01*
X99400760Y-42949860D02*
X99400760Y-42551080D01*
X96390860Y-41298860D02*
X96639780Y-41839880D01*
X95771100Y-45469540D02*
X95529800Y-45710840D01*
X97960580Y-46759860D02*
X97729440Y-46980840D01*
X100139900Y-41799240D02*
X100409140Y-41329340D01*
X100409140Y-41329340D02*
X99939240Y-40818800D01*
X96230840Y-46919880D02*
X96449280Y-46739540D01*
X98049480Y-45550820D02*
X97698960Y-45469540D01*
X100099260Y-43849020D02*
X100289760Y-43379120D01*
X99489660Y-45459380D02*
X99489660Y-47001160D01*
X95669500Y-46869080D02*
X95920960Y-46991000D01*
X100340560Y-42370740D02*
X100139900Y-41799240D01*
X96619460Y-43729640D02*
X96360380Y-44290980D01*
X97140160Y-45660040D02*
X97109680Y-45929280D01*
X95920960Y-42419000D02*
X95910800Y-43120040D01*
X98951180Y-40879760D02*
X98781000Y-40338740D01*
X97419560Y-44539900D02*
X97698960Y-44699920D01*
X99438860Y-46170580D02*
X99449020Y-46180740D01*
X100068780Y-45489860D02*
X100429460Y-46960520D01*
X97549100Y-42248820D02*
X97399240Y-42700940D01*
X99250900Y-42200560D02*
X98798780Y-41850040D01*
X99400760Y-42551080D02*
X99250900Y-42200560D01*
X95920960Y-46991000D02*
X96230840Y-46919880D01*
X98090120Y-40320960D02*
X97879300Y-40869600D01*
X98049480Y-43699160D02*
X97698960Y-44699920D01*
X96898860Y-44809140D02*
X97419560Y-44539900D01*
D16*
%TO.C,C4*%
X160222000Y-58170578D02*
X160222000Y-57653422D01*
X158802000Y-58170578D02*
X158802000Y-57653422D01*
%TO.C,J6*%
X44390000Y-63530000D02*
X44390000Y-53310000D01*
X57800000Y-57420000D02*
X57800000Y-59420000D01*
X44390000Y-53310000D02*
X47450000Y-53310000D01*
X57610000Y-60720000D02*
X57610000Y-63530000D01*
X51550000Y-53310000D02*
X57610000Y-53310000D01*
X57610000Y-63530000D02*
X51550000Y-63530000D01*
X47450000Y-63530000D02*
X44390000Y-63530000D01*
X57610000Y-53310000D02*
X57610000Y-56120000D01*
%TO.C,J1*%
X69905000Y-59110000D02*
X69905000Y-70430000D01*
X66047000Y-66062000D02*
X65652000Y-66458000D01*
X59625000Y-59110000D02*
X69905000Y-59110000D01*
X63613000Y-63416000D02*
X63506000Y-63523000D01*
X59385000Y-69930000D02*
X59385000Y-70670000D01*
X59385000Y-70670000D02*
X59885000Y-70670000D01*
X60943000Y-66617000D02*
X60837000Y-66724000D01*
X59625000Y-67370000D02*
X69905000Y-67370000D01*
X68959000Y-63682000D02*
X68564000Y-64078000D01*
X63879000Y-63682000D02*
X63772000Y-63789000D01*
X59625000Y-70430000D02*
X69905000Y-70430000D01*
X60677000Y-66351000D02*
X60571000Y-66458000D01*
X59625000Y-69870000D02*
X69905000Y-69870000D01*
X59625000Y-59110000D02*
X59625000Y-70430000D01*
X66298000Y-66344000D02*
X65918000Y-66724000D01*
X59625000Y-61170000D02*
X69905000Y-61170000D01*
X68693000Y-63416000D02*
X68313000Y-63796000D01*
X64405000Y-65070000D02*
G75*
G03*
X64405000Y-65070000I-2180000J0D01*
G01*
X69485000Y-65070000D02*
G75*
G03*
X69485000Y-65070000I-2180000J0D01*
G01*
%TO.C,J3*%
X69548000Y-40719000D02*
X69654000Y-40612000D01*
X64178000Y-41008000D02*
X64573000Y-40612000D01*
X70840000Y-36400000D02*
X70340000Y-36400000D01*
X70600000Y-47960000D02*
X60320000Y-47960000D01*
X70600000Y-37200000D02*
X60320000Y-37200000D01*
X70600000Y-36640000D02*
X60320000Y-36640000D01*
X70600000Y-47960000D02*
X70600000Y-36640000D01*
X70600000Y-45900000D02*
X60320000Y-45900000D01*
X70600000Y-39700000D02*
X60320000Y-39700000D01*
X66346000Y-43388000D02*
X66453000Y-43281000D01*
X61266000Y-43388000D02*
X61661000Y-42992000D01*
X66612000Y-43654000D02*
X66719000Y-43547000D01*
X61532000Y-43654000D02*
X61912000Y-43274000D01*
X63927000Y-40726000D02*
X64307000Y-40346000D01*
X69282000Y-40453000D02*
X69388000Y-40346000D01*
X70840000Y-37140000D02*
X70840000Y-36400000D01*
X60320000Y-47960000D02*
X60320000Y-36640000D01*
X65100000Y-42000000D02*
G75*
G03*
X65100000Y-42000000I-2180000J0D01*
G01*
X70180000Y-42000000D02*
G75*
G03*
X70180000Y-42000000I-2180000J0D01*
G01*
%TO.C,C7*%
X81334000Y-54748621D02*
X77666000Y-54748621D01*
X82470000Y-53348621D02*
X80540000Y-53348621D01*
X78460000Y-53668621D02*
X76688000Y-53668621D01*
X80762000Y-55068621D02*
X78238000Y-55068621D01*
X81880000Y-54268621D02*
X80540000Y-54268621D01*
X78460000Y-53868621D02*
X76810000Y-53868621D01*
X78460000Y-53908621D02*
X76836000Y-53908621D01*
X82701000Y-52507621D02*
X80540000Y-52507621D01*
X82078000Y-54028621D02*
X80540000Y-54028621D01*
X82586000Y-53028621D02*
X80540000Y-53028621D01*
X78460000Y-52627621D02*
X76318000Y-52627621D01*
X82667000Y-52707621D02*
X80540000Y-52707621D01*
X78460000Y-52467621D02*
X76294000Y-52467621D01*
X81544000Y-54588621D02*
X77456000Y-54588621D01*
X78460000Y-54228621D02*
X77084000Y-54228621D01*
X78460000Y-54068621D02*
X76952000Y-54068621D01*
X81637000Y-54508621D02*
X77363000Y-54508621D01*
X78460000Y-53348621D02*
X76530000Y-53348621D01*
X82486000Y-53308621D02*
X80540000Y-53308621D01*
X81276000Y-54788621D02*
X77724000Y-54788621D01*
X82650000Y-52788621D02*
X80540000Y-52788621D01*
X78460000Y-53788621D02*
X76758000Y-53788621D01*
X78460000Y-52948621D02*
X76390000Y-52948621D01*
X81150000Y-54868621D02*
X77850000Y-54868621D01*
X78460000Y-54188621D02*
X77050000Y-54188621D01*
X82356000Y-53588621D02*
X80540000Y-53588621D01*
X78460000Y-52788621D02*
X76350000Y-52788621D01*
X78460000Y-52868621D02*
X76369000Y-52868621D01*
X80665000Y-55108621D02*
X78335000Y-55108621D01*
X82689000Y-52587621D02*
X80540000Y-52587621D01*
X81950000Y-54188621D02*
X80540000Y-54188621D01*
X78460000Y-52908621D02*
X76379000Y-52908621D01*
X78460000Y-53588621D02*
X76644000Y-53588621D01*
X78460000Y-52988621D02*
X76402000Y-52988621D01*
X78460000Y-53268621D02*
X76498000Y-53268621D01*
X78460000Y-53548621D02*
X76624000Y-53548621D01*
X81009000Y-54948621D02*
X77991000Y-54948621D01*
X81843000Y-54308621D02*
X80540000Y-54308621D01*
X78460000Y-54148621D02*
X77016000Y-54148621D01*
X78460000Y-53068621D02*
X76426000Y-53068621D01*
X78460000Y-53948621D02*
X76864000Y-53948621D01*
X78460000Y-53308621D02*
X76514000Y-53308621D01*
X82518000Y-53228621D02*
X80540000Y-53228621D01*
X78460000Y-53468621D02*
X76584000Y-53468621D01*
X78460000Y-52707621D02*
X76333000Y-52707621D01*
X82290000Y-53708621D02*
X80540000Y-53708621D01*
X82610000Y-52948621D02*
X80540000Y-52948621D01*
X80302000Y-55228621D02*
X78698000Y-55228621D01*
X81805000Y-54348621D02*
X80540000Y-54348621D01*
X78460000Y-53708621D02*
X76710000Y-53708621D01*
X81592000Y-54548621D02*
X77408000Y-54548621D01*
X78460000Y-53108621D02*
X76439000Y-53108621D01*
X82434000Y-53428621D02*
X80540000Y-53428621D01*
X82312000Y-53668621D02*
X80540000Y-53668621D01*
X82376000Y-53548621D02*
X80540000Y-53548621D01*
X82216000Y-53828621D02*
X80540000Y-53828621D01*
X82730000Y-52107621D02*
X76270000Y-52107621D01*
X82730000Y-52067621D02*
X76270000Y-52067621D01*
X78460000Y-53188621D02*
X76467000Y-53188621D01*
X82695000Y-52547621D02*
X80540000Y-52547621D01*
X78460000Y-53228621D02*
X76482000Y-53228621D01*
X82190000Y-53868621D02*
X80540000Y-53868621D01*
X82715000Y-52387621D02*
X80540000Y-52387621D01*
X82675000Y-52667621D02*
X80540000Y-52667621D01*
X78460000Y-52747621D02*
X76341000Y-52747621D01*
X82136000Y-53948621D02*
X80540000Y-53948621D01*
X81984000Y-54148621D02*
X80540000Y-54148621D01*
X78460000Y-53388621D02*
X76548000Y-53388621D01*
X81724000Y-54428621D02*
X77276000Y-54428621D01*
X82631000Y-52868621D02*
X80540000Y-52868621D01*
X81339000Y-48567380D02*
X81339000Y-49197380D01*
X78460000Y-52387621D02*
X76285000Y-52387621D01*
X80932000Y-54988621D02*
X78068000Y-54988621D01*
X82711000Y-52427621D02*
X80540000Y-52427621D01*
X82706000Y-52467621D02*
X80540000Y-52467621D01*
X80850000Y-55028621D02*
X78150000Y-55028621D01*
X78460000Y-52347621D02*
X76282000Y-52347621D01*
X82728000Y-52187621D02*
X76272000Y-52187621D01*
X78460000Y-53748621D02*
X76734000Y-53748621D01*
X79902000Y-55308621D02*
X79098000Y-55308621D01*
X81682000Y-54468621D02*
X77318000Y-54468621D01*
X81495000Y-54628621D02*
X77505000Y-54628621D01*
X81654000Y-48882380D02*
X81024000Y-48882380D01*
X82107000Y-53988621D02*
X80540000Y-53988621D01*
X82561000Y-53108621D02*
X80540000Y-53108621D01*
X78460000Y-53028621D02*
X76414000Y-53028621D01*
X82727000Y-52227621D02*
X76273000Y-52227621D01*
X81081000Y-54908621D02*
X77919000Y-54908621D01*
X82452000Y-53388621D02*
X80540000Y-53388621D01*
X81390000Y-54708621D02*
X77610000Y-54708621D01*
X80440000Y-55188621D02*
X78560000Y-55188621D01*
X82598000Y-52988621D02*
X80540000Y-52988621D01*
X81214000Y-54828621D02*
X77786000Y-54828621D01*
X78460000Y-52307621D02*
X76278000Y-52307621D01*
X81916000Y-54228621D02*
X80540000Y-54228621D01*
X82682000Y-52627621D02*
X80540000Y-52627621D01*
X78460000Y-54308621D02*
X77157000Y-54308621D01*
X82242000Y-53788621D02*
X80540000Y-53788621D01*
X82659000Y-52747621D02*
X80540000Y-52747621D01*
X82730000Y-52147621D02*
X76270000Y-52147621D01*
X82416000Y-53468621D02*
X80540000Y-53468621D01*
X78460000Y-54108621D02*
X76984000Y-54108621D01*
X82164000Y-53908621D02*
X80540000Y-53908621D01*
X78460000Y-52828621D02*
X76359000Y-52828621D01*
X82016000Y-54108621D02*
X80540000Y-54108621D01*
X82574000Y-53068621D02*
X80540000Y-53068621D01*
X78460000Y-53148621D02*
X76453000Y-53148621D01*
X82048000Y-54068621D02*
X80540000Y-54068621D01*
X81444000Y-54668621D02*
X77556000Y-54668621D01*
X82334000Y-53628621D02*
X80540000Y-53628621D01*
X78460000Y-52507621D02*
X76299000Y-52507621D01*
X82533000Y-53188621D02*
X80540000Y-53188621D01*
X78460000Y-52547621D02*
X76305000Y-52547621D01*
X82502000Y-53268621D02*
X80540000Y-53268621D01*
X80133000Y-55268621D02*
X78867000Y-55268621D01*
X82718000Y-52347621D02*
X80540000Y-52347621D01*
X80559000Y-55148621D02*
X78441000Y-55148621D01*
X78460000Y-53828621D02*
X76784000Y-53828621D01*
X78460000Y-53508621D02*
X76604000Y-53508621D01*
X78460000Y-53988621D02*
X76893000Y-53988621D01*
X78460000Y-53428621D02*
X76566000Y-53428621D01*
X82621000Y-52908621D02*
X80540000Y-52908621D01*
X78460000Y-54028621D02*
X76922000Y-54028621D01*
X78460000Y-54268621D02*
X77120000Y-54268621D01*
X82266000Y-53748621D02*
X80540000Y-53748621D01*
X78460000Y-52587621D02*
X76311000Y-52587621D01*
X82396000Y-53508621D02*
X80540000Y-53508621D01*
X82722000Y-52307621D02*
X80540000Y-52307621D01*
X81765000Y-54388621D02*
X77235000Y-54388621D01*
X78460000Y-52667621D02*
X76325000Y-52667621D01*
X78460000Y-54348621D02*
X77195000Y-54348621D01*
X78460000Y-53628621D02*
X76666000Y-53628621D01*
X78460000Y-52427621D02*
X76289000Y-52427621D01*
X82724000Y-52267621D02*
X76276000Y-52267621D01*
X82547000Y-53148621D02*
X80540000Y-53148621D01*
X82641000Y-52828621D02*
X80540000Y-52828621D01*
X82770000Y-52067621D02*
G75*
G03*
X82770000Y-52067621I-3270000J0D01*
G01*
%TO.C,J5*%
X57800000Y-44720000D02*
X57800000Y-46720000D01*
X44390000Y-50830000D02*
X44390000Y-40610000D01*
X57610000Y-48020000D02*
X57610000Y-50830000D01*
X57610000Y-50830000D02*
X51550000Y-50830000D01*
X44390000Y-40610000D02*
X47450000Y-40610000D01*
X51550000Y-40610000D02*
X57610000Y-40610000D01*
X47450000Y-50830000D02*
X44390000Y-50830000D01*
X57610000Y-40610000D02*
X57610000Y-43420000D01*
%TO.C,C8*%
X73300000Y-51313748D02*
X73300000Y-52736252D01*
X71480000Y-51313748D02*
X71480000Y-52736252D01*
%TO.C,J4*%
X78112000Y-43654000D02*
X78219000Y-43547000D01*
X82340000Y-37140000D02*
X82340000Y-36400000D01*
X82100000Y-36640000D02*
X71820000Y-36640000D01*
X82100000Y-47960000D02*
X71820000Y-47960000D01*
X75678000Y-41008000D02*
X76073000Y-40612000D01*
X73032000Y-43654000D02*
X73412000Y-43274000D01*
X82100000Y-39700000D02*
X71820000Y-39700000D01*
X81048000Y-40719000D02*
X81154000Y-40612000D01*
X80782000Y-40453000D02*
X80888000Y-40346000D01*
X82340000Y-36400000D02*
X81840000Y-36400000D01*
X72766000Y-43388000D02*
X73161000Y-42992000D01*
X82100000Y-45900000D02*
X71820000Y-45900000D01*
X82100000Y-37200000D02*
X71820000Y-37200000D01*
X71820000Y-47960000D02*
X71820000Y-36640000D01*
X75427000Y-40726000D02*
X75807000Y-40346000D01*
X82100000Y-47960000D02*
X82100000Y-36640000D01*
X77846000Y-43388000D02*
X77953000Y-43281000D01*
X76600000Y-42000000D02*
G75*
G03*
X76600000Y-42000000I-2180000J0D01*
G01*
X81680000Y-42000000D02*
G75*
G03*
X81680000Y-42000000I-2180000J0D01*
G01*
%TO.C,J2*%
X70815000Y-69930000D02*
X70815000Y-70670000D01*
X71055000Y-61170000D02*
X81335000Y-61170000D01*
X70815000Y-70670000D02*
X71315000Y-70670000D01*
X71055000Y-70430000D02*
X81335000Y-70430000D01*
X72373000Y-66617000D02*
X72267000Y-66724000D01*
X75309000Y-63682000D02*
X75202000Y-63789000D01*
X75043000Y-63416000D02*
X74936000Y-63523000D01*
X71055000Y-59110000D02*
X81335000Y-59110000D01*
X81335000Y-59110000D02*
X81335000Y-70430000D01*
X71055000Y-59110000D02*
X71055000Y-70430000D01*
X80389000Y-63682000D02*
X79994000Y-64078000D01*
X72107000Y-66351000D02*
X72001000Y-66458000D01*
X77728000Y-66344000D02*
X77348000Y-66724000D01*
X71055000Y-69870000D02*
X81335000Y-69870000D01*
X80123000Y-63416000D02*
X79743000Y-63796000D01*
X71055000Y-67370000D02*
X81335000Y-67370000D01*
X77477000Y-66062000D02*
X77082000Y-66458000D01*
X80915000Y-65070000D02*
G75*
G03*
X80915000Y-65070000I-2180000J0D01*
G01*
X75835000Y-65070000D02*
G75*
G03*
X75835000Y-65070000I-2180000J0D01*
G01*
%TD*%
D17*
%TO.C,P1*%
X107950000Y-43180000D03*
D18*
X107950000Y-40640000D03*
X110490000Y-43180000D03*
X110490000Y-40640000D03*
X113030000Y-43180000D03*
X113030000Y-40640000D03*
X115570000Y-43180000D03*
X115570000Y-40640000D03*
X118110000Y-43180000D03*
X118110000Y-40640000D03*
X120650000Y-43180000D03*
X120650000Y-40640000D03*
X123190000Y-43180000D03*
X123190000Y-40640000D03*
X125730000Y-43180000D03*
X125730000Y-40640000D03*
X128270000Y-43180000D03*
X128270000Y-40640000D03*
X130810000Y-43180000D03*
X130810000Y-40640000D03*
X133350000Y-43180000D03*
X133350000Y-40640000D03*
X135890000Y-43180000D03*
X135890000Y-40640000D03*
X138430000Y-43180000D03*
X138430000Y-40640000D03*
X140970000Y-43180000D03*
X140970000Y-40640000D03*
X143510000Y-43180000D03*
X143510000Y-40640000D03*
X146050000Y-43180000D03*
X146050000Y-40640000D03*
X148590000Y-43180000D03*
X148590000Y-40640000D03*
X151130000Y-43180000D03*
X151130000Y-40640000D03*
X153670000Y-43180000D03*
X153670000Y-40640000D03*
X156210000Y-43180000D03*
X156210000Y-40640000D03*
%TD*%
D19*
%TO.C,P20*%
X103080000Y-41910000D03*
%TD*%
%TO.C,P21*%
X161080000Y-41910000D03*
%TD*%
D20*
%TO.C,P5*%
X110744000Y-45847000D03*
%TD*%
%TO.C,P3*%
X119380000Y-45847000D03*
%TD*%
D21*
%TO.C,P2*%
X87376000Y-46990000D03*
%TD*%
%TO.C,P4*%
X87376000Y-50800000D03*
%TD*%
D22*
%TO.C,P6*%
X86360000Y-54102000D03*
X88900000Y-54102000D03*
%TD*%
D23*
%TO.C,P7*%
X86360000Y-56642000D03*
D24*
X88900000Y-56642000D03*
%TD*%
D22*
%TO.C,P8*%
X86360000Y-59182000D03*
X88900000Y-59182000D03*
%TD*%
D19*
%TO.C,*%
X50000000Y-67500000D03*
%TD*%
%LPC*%
D25*
%TO.C,C1*%
X106172000Y-58849500D03*
X106172000Y-56974500D03*
%TD*%
%TO.C,C2*%
X123952000Y-58849500D03*
X123952000Y-56974500D03*
%TD*%
%TO.C,C3*%
X141732000Y-58849500D03*
X141732000Y-56974500D03*
%TD*%
D17*
%TO.C,P1*%
X107950000Y-43180000D03*
D18*
X107950000Y-40640000D03*
X110490000Y-43180000D03*
X110490000Y-40640000D03*
X113030000Y-43180000D03*
X113030000Y-40640000D03*
X115570000Y-43180000D03*
X115570000Y-40640000D03*
X118110000Y-43180000D03*
X118110000Y-40640000D03*
X120650000Y-43180000D03*
X120650000Y-40640000D03*
X123190000Y-43180000D03*
X123190000Y-40640000D03*
X125730000Y-43180000D03*
X125730000Y-40640000D03*
X128270000Y-43180000D03*
X128270000Y-40640000D03*
X130810000Y-43180000D03*
X130810000Y-40640000D03*
X133350000Y-43180000D03*
X133350000Y-40640000D03*
X135890000Y-43180000D03*
X135890000Y-40640000D03*
X138430000Y-43180000D03*
X138430000Y-40640000D03*
X140970000Y-43180000D03*
X140970000Y-40640000D03*
X143510000Y-43180000D03*
X143510000Y-40640000D03*
X146050000Y-43180000D03*
X146050000Y-40640000D03*
X148590000Y-43180000D03*
X148590000Y-40640000D03*
X151130000Y-43180000D03*
X151130000Y-40640000D03*
X153670000Y-43180000D03*
X153670000Y-40640000D03*
X156210000Y-43180000D03*
X156210000Y-40640000D03*
%TD*%
D17*
%TO.C,Panel-1*%
X88900000Y-67056000D03*
D18*
X88900000Y-64516000D03*
X91440000Y-67056000D03*
X91440000Y-64516000D03*
X93980000Y-67056000D03*
X93980000Y-64516000D03*
X96520000Y-67056000D03*
X96520000Y-64516000D03*
X99060000Y-67056000D03*
X99060000Y-64516000D03*
X101600000Y-67056000D03*
X101600000Y-64516000D03*
X104140000Y-67056000D03*
X104140000Y-64516000D03*
X106680000Y-67056000D03*
X106680000Y-64516000D03*
%TD*%
D17*
%TO.C,Panel-2*%
X116840000Y-67056000D03*
D18*
X116840000Y-64516000D03*
X119380000Y-67056000D03*
X119380000Y-64516000D03*
X121920000Y-67056000D03*
X121920000Y-64516000D03*
X124460000Y-67056000D03*
X124460000Y-64516000D03*
X127000000Y-67056000D03*
X127000000Y-64516000D03*
X129540000Y-67056000D03*
X129540000Y-64516000D03*
X132080000Y-67056000D03*
X132080000Y-64516000D03*
X134620000Y-67056000D03*
X134620000Y-64516000D03*
%TD*%
D17*
%TO.C,Panel-3*%
X144780000Y-67056000D03*
D18*
X144780000Y-64516000D03*
X147320000Y-67056000D03*
X147320000Y-64516000D03*
X149860000Y-67056000D03*
X149860000Y-64516000D03*
X152400000Y-67056000D03*
X152400000Y-64516000D03*
X154940000Y-67056000D03*
X154940000Y-64516000D03*
X157480000Y-67056000D03*
X157480000Y-64516000D03*
X160020000Y-67056000D03*
X160020000Y-64516000D03*
X162560000Y-67056000D03*
X162560000Y-64516000D03*
%TD*%
D19*
%TO.C,P20*%
X103080000Y-41910000D03*
%TD*%
%TO.C,P21*%
X161080000Y-41910000D03*
%TD*%
D26*
%TO.C,R1*%
X104726500Y-46736000D03*
X106601500Y-46736000D03*
%TD*%
D20*
%TO.C,P5*%
X110744000Y-45847000D03*
%TD*%
D27*
%TO.C,C5*%
X92710000Y-42799000D03*
D28*
X92710000Y-40299000D03*
%TD*%
D20*
%TO.C,P3*%
X119380000Y-45847000D03*
%TD*%
D29*
%TO.C,C6*%
X87376000Y-43183000D03*
X87376000Y-40383000D03*
%TD*%
D30*
%TO.C,REF\u002A\u002A*%
X86000000Y-70000000D03*
%TD*%
D21*
%TO.C,P2*%
X87376000Y-46990000D03*
%TD*%
%TO.C,P4*%
X87376000Y-50800000D03*
%TD*%
D22*
%TO.C,P6*%
X86360000Y-54102000D03*
X88900000Y-54102000D03*
%TD*%
D23*
%TO.C,P7*%
X86360000Y-56642000D03*
D24*
X88900000Y-56642000D03*
%TD*%
D22*
%TO.C,P8*%
X86360000Y-59182000D03*
X88900000Y-59182000D03*
%TD*%
D31*
%TO.C,U1*%
X103505000Y-49706000D03*
X102235000Y-49706000D03*
X100965000Y-49706000D03*
X99695000Y-49706000D03*
X98425000Y-49706000D03*
X97155000Y-49706000D03*
X95885000Y-49706000D03*
X94615000Y-49706000D03*
X93345000Y-49706000D03*
X92075000Y-49706000D03*
X92075000Y-59006000D03*
X93345000Y-59006000D03*
X94615000Y-59006000D03*
X95885000Y-59006000D03*
X97155000Y-59006000D03*
X98425000Y-59006000D03*
X99695000Y-59006000D03*
X100965000Y-59006000D03*
X102235000Y-59006000D03*
X103505000Y-59006000D03*
%TD*%
%TO.C,U2*%
X121285000Y-49706000D03*
X120015000Y-49706000D03*
X118745000Y-49706000D03*
X117475000Y-49706000D03*
X116205000Y-49706000D03*
X114935000Y-49706000D03*
X113665000Y-49706000D03*
X112395000Y-49706000D03*
X111125000Y-49706000D03*
X109855000Y-49706000D03*
X109855000Y-59006000D03*
X111125000Y-59006000D03*
X112395000Y-59006000D03*
X113665000Y-59006000D03*
X114935000Y-59006000D03*
X116205000Y-59006000D03*
X117475000Y-59006000D03*
X118745000Y-59006000D03*
X120015000Y-59006000D03*
X121285000Y-59006000D03*
%TD*%
%TO.C,U3*%
X139065000Y-49706000D03*
X137795000Y-49706000D03*
X136525000Y-49706000D03*
X135255000Y-49706000D03*
X133985000Y-49706000D03*
X132715000Y-49706000D03*
X131445000Y-49706000D03*
X130175000Y-49706000D03*
X128905000Y-49706000D03*
X127635000Y-49706000D03*
X127635000Y-59006000D03*
X128905000Y-59006000D03*
X130175000Y-59006000D03*
X131445000Y-59006000D03*
X132715000Y-59006000D03*
X133985000Y-59006000D03*
X135255000Y-59006000D03*
X136525000Y-59006000D03*
X137795000Y-59006000D03*
X139065000Y-59006000D03*
%TD*%
%TO.C,U4*%
X156845000Y-49706000D03*
X155575000Y-49706000D03*
X154305000Y-49706000D03*
X153035000Y-49706000D03*
X151765000Y-49706000D03*
X150495000Y-49706000D03*
X149225000Y-49706000D03*
X147955000Y-49706000D03*
X146685000Y-49706000D03*
X145415000Y-49706000D03*
X145415000Y-59006000D03*
X146685000Y-59006000D03*
X147955000Y-59006000D03*
X149225000Y-59006000D03*
X150495000Y-59006000D03*
X151765000Y-59006000D03*
X153035000Y-59006000D03*
X154305000Y-59006000D03*
X155575000Y-59006000D03*
X156845000Y-59006000D03*
%TD*%
D30*
%TO.C,REF\u002A\u002A*%
X161700000Y-38000000D03*
%TD*%
D25*
%TO.C,C4*%
X159512000Y-58849500D03*
X159512000Y-56974500D03*
%TD*%
D19*
%TO.C,*%
X50000000Y-67500000D03*
%TD*%
D28*
%TO.C,J6*%
X47500000Y-58420000D03*
D32*
X56500000Y-58420000D03*
D33*
X50500000Y-58420000D03*
D34*
X49500000Y-62920000D03*
X49500000Y-53920000D03*
%TD*%
D35*
%TO.C,J1*%
X62225000Y-65070000D03*
D36*
X67305000Y-65070000D03*
%TD*%
D35*
%TO.C,J3*%
X68000000Y-42000000D03*
D36*
X62920000Y-42000000D03*
%TD*%
D27*
%TO.C,C7*%
X79500000Y-50817621D03*
D28*
X79500000Y-53317621D03*
%TD*%
%TO.C,J5*%
X47500000Y-45720000D03*
D32*
X56500000Y-45720000D03*
D33*
X50500000Y-45720000D03*
D34*
X49500000Y-50220000D03*
X49500000Y-41220000D03*
%TD*%
D37*
%TO.C,C8*%
X72390000Y-50550000D03*
X72390000Y-53500000D03*
%TD*%
D35*
%TO.C,J4*%
X79500000Y-42000000D03*
D36*
X74420000Y-42000000D03*
%TD*%
D35*
%TO.C,J2*%
X73655000Y-65070000D03*
D36*
X78735000Y-65070000D03*
%TD*%
D38*
X122448000Y-59056000D03*
X104659500Y-58655800D03*
X160000000Y-52000000D03*
X144634400Y-48160000D03*
X95500000Y-55250000D03*
X105029000Y-61976000D03*
X120750000Y-54750000D03*
X136000000Y-55250000D03*
X144310000Y-50350700D03*
X149225000Y-47951000D03*
X143270400Y-47332100D03*
X94208000Y-45594300D03*
X139973900Y-48232500D03*
X136525000Y-47724700D03*
X127635000Y-46228000D03*
X138230600Y-51450000D03*
X111520000Y-66774400D03*
X111221000Y-60767800D03*
X107940500Y-63564400D03*
X101092000Y-62611000D03*
X117884900Y-61925400D03*
X119380700Y-60713100D03*
X124587000Y-48006000D03*
X108204000Y-57658000D03*
X120650000Y-68262460D03*
X118110000Y-70104000D03*
X150876000Y-69850000D03*
M02*
