M48
; DRILL file {KiCad (6.0.0)} date Sat Jun 25 21:25:22 2022
; FORMAT={-:-/ absolute / inch / decimal}
; #@! TF.CreationDate,2022-06-25T21:25:22+02:00
; #@! TF.GenerationSoftware,Kicad,Pcbnew,(6.0.0)
; #@! TF.FileFunction,Plated,1,2,PTH
FMAT,2
INCH
; #@! TA.AperFunction,Plated,PTH,ViaDrill
T1C0.0250
; #@! TA.AperFunction,Plated,PTH,ComponentDrill
T2C0.0315
; #@! TA.AperFunction,Plated,PTH,ComponentDrill
T3C0.0394
; #@! TA.AperFunction,Plated,PTH,ComponentDrill
T4C0.0400
; #@! TA.AperFunction,Plated,PTH,ComponentDrill
T5C0.0472
; #@! TA.AperFunction,Plated,PTH,ComponentDrill
T6C0.0512
; #@! TA.AperFunction,Plated,PTH,ComponentDrill
T7C0.1200
%
G90
G05
T1
X3.709Y-1.7951
X3.7598Y-2.1752
X3.98Y-2.465
X4.1205Y-2.3093
X4.135Y-2.44
X4.2496Y-2.5025
X4.26Y-2.27
X4.3788Y-2.3924
X4.3906Y-2.6289
X4.6411Y-2.438
X4.65Y-2.76
X4.7Y-2.3903
X4.75Y-2.6875
X4.7539Y-2.1555
X4.8208Y-2.325
X4.905Y-1.89
X5.025Y-1.82
X5.3543Y-2.1752
X5.375Y-1.8789
X5.4421Y-2.0256
X5.5108Y-1.8989
X5.6406Y-1.8635
X5.6815Y-1.9823
X5.6943Y-1.8961
X5.875Y-1.8878
X5.94Y-2.75
X6.2992Y-2.0472
T2
X3.1299Y-2.0007
X3.1299Y-2.0991
X3.65Y-1.5866
X3.65Y-1.685
T4
X3.4Y-2.13
X3.4Y-2.23
X3.4Y-2.33
X3.5Y-2.13
X3.5Y-2.23
X3.5Y-2.33
X3.5Y-2.54
X3.5Y-2.64
X3.6Y-2.54
X3.6Y-2.64
X3.7Y-2.54
X3.7Y-2.64
X3.8Y-2.54
X3.8Y-2.64
X3.9Y-2.54
X3.9Y-2.64
X4.0Y-2.54
X4.0Y-2.64
X4.1Y-2.54
X4.1Y-2.64
X4.2Y-2.54
X4.2Y-2.64
X4.25Y-1.6
X4.25Y-1.7
X4.35Y-1.6
X4.35Y-1.7
X4.36Y-1.805
X4.45Y-1.6
X4.45Y-1.7
X4.55Y-1.6
X4.55Y-1.7
X4.6Y-2.54
X4.6Y-2.64
X4.65Y-1.6
X4.65Y-1.7
X4.7Y-1.805
X4.7Y-2.54
X4.7Y-2.64
X4.75Y-1.6
X4.75Y-1.7
X4.8Y-2.54
X4.8Y-2.64
X4.85Y-1.6
X4.85Y-1.7
X4.9Y-2.54
X4.9Y-2.64
X4.95Y-1.6
X4.95Y-1.7
X5.0Y-2.54
X5.0Y-2.64
X5.05Y-1.6
X5.05Y-1.7
X5.1Y-2.54
X5.1Y-2.64
X5.15Y-1.6
X5.15Y-1.7
X5.2Y-2.54
X5.2Y-2.64
X5.25Y-1.6
X5.25Y-1.7
X5.3Y-2.54
X5.3Y-2.64
X5.35Y-1.6
X5.35Y-1.7
X5.45Y-1.6
X5.45Y-1.7
X5.55Y-1.6
X5.55Y-1.7
X5.65Y-1.6
X5.65Y-1.7
X5.7Y-2.54
X5.7Y-2.64
X5.75Y-1.6
X5.75Y-1.7
X5.8Y-2.54
X5.8Y-2.64
X5.85Y-1.6
X5.85Y-1.7
X5.9Y-2.54
X5.9Y-2.64
X5.95Y-1.6
X5.95Y-1.7
X6.0Y-2.54
X6.0Y-2.64
X6.05Y-1.6
X6.05Y-1.7
X6.1Y-2.54
X6.1Y-2.64
X6.15Y-1.6
X6.15Y-1.7
X6.2Y-2.54
X6.2Y-2.64
X6.3Y-2.54
X6.3Y-2.64
X6.4Y-2.54
X6.4Y-2.64
T5
X3.44Y-1.85
X3.44Y-2.0
T6
X2.4498Y-2.5618
X2.4772Y-1.6535
X2.6498Y-2.5618
X2.6772Y-1.6535
X2.8998Y-2.5618
X2.9299Y-1.6535
X3.0998Y-2.5618
X3.1299Y-1.6535
T7
X1.9685Y-2.6575
X4.0583Y-1.65
X6.3417Y-1.65
T3
G00X1.9783Y-1.6228
M15
G01X1.9193Y-1.6228
M16
G05
G00X1.9783Y-1.9772
M15
G01X1.9193Y-1.9772
M16
G05
G00X1.9783Y-2.1228
M15
G01X1.9193Y-2.1228
M16
G05
G00X1.9783Y-2.4772
M15
G01X1.9193Y-2.4772
M16
G05
G00X1.9882Y-1.7744
M15
G01X1.9882Y-1.8256
M16
G05
G00X1.9882Y-2.2744
M15
G01X1.9882Y-2.3256
M16
G05
G00X2.2244Y-1.7606
M15
G01X2.2244Y-1.8394
M16
G05
G00X2.2244Y-2.2606
M15
G01X2.2244Y-2.3394
M16
G05
T0
M30
