%TF.GenerationSoftware,KiCad,Pcbnew,(6.0.0)*%
%TF.CreationDate,2022-06-25T21:25:22+02:00*%
%TF.ProjectId,active3-rpi-hub75-adapter,61637469-7665-4332-9d72-70692d687562,rev?*%
%TF.SameCoordinates,Original*%
%TF.FileFunction,Legend,Bot*%
%TF.FilePolarity,Positive*%
%FSLAX46Y46*%
G04 Gerber Fmt 4.6, Leading zero omitted, Abs format (unit mm)*
G04 Created by KiCad (PCBNEW (6.0.0)) date 2022-06-25 21:25:22*
%MOMM*%
%LPD*%
G01*
G04 APERTURE LIST*
%ADD10C,0.200000*%
%ADD11R,1.727200X1.727200*%
%ADD12O,1.727200X1.727200*%
%ADD13C,4.064000*%
%ADD14R,1.900000X1.900000*%
%ADD15R,1.600000X1.600000*%
%ADD16C,1.600000*%
%ADD17O,4.000000X2.200000*%
%ADD18R,2.032000X2.032000*%
%ADD19C,2.032000*%
%ADD20O,2.032000X2.032000*%
%ADD21R,2.000000X4.000000*%
%ADD22O,2.000000X3.300000*%
%ADD23O,3.500000X2.000000*%
%ADD24R,2.600000X2.600000*%
%ADD25C,2.600000*%
%ADD26C,0.889000*%
G04 APERTURE END LIST*
D10*
X135277428Y-52358857D02*
X134363142Y-51158857D01*
X135106000Y-51158857D02*
X134991714Y-51216000D01*
X134934571Y-51330285D01*
X134991714Y-51444571D01*
X135106000Y-51501714D01*
X135220285Y-51444571D01*
X135277428Y-51330285D01*
X135220285Y-51216000D01*
X135106000Y-51158857D01*
X134420285Y-52301714D02*
X134363142Y-52187428D01*
X134420285Y-52073142D01*
X134534571Y-52016000D01*
X134648857Y-52073142D01*
X134706000Y-52187428D01*
X134648857Y-52301714D01*
X134534571Y-52358857D01*
X134420285Y-52301714D01*
X133906000Y-52358857D02*
X132991714Y-51158857D01*
X133734571Y-51158857D02*
X133620285Y-51216000D01*
X133563142Y-51330285D01*
X133620285Y-51444571D01*
X133734571Y-51501714D01*
X133848857Y-51444571D01*
X133906000Y-51330285D01*
X133848857Y-51216000D01*
X133734571Y-51158857D01*
X133048857Y-52301714D02*
X132991714Y-52187428D01*
X133048857Y-52073142D01*
X133163142Y-52016000D01*
X133277428Y-52073142D01*
X133334571Y-52187428D01*
X133277428Y-52301714D01*
X133163142Y-52358857D01*
X133048857Y-52301714D01*
X131963142Y-51558857D02*
X131963142Y-52530285D01*
X132020285Y-52644571D01*
X132077428Y-52701714D01*
X132191714Y-52758857D01*
X132363142Y-52758857D01*
X132477428Y-52701714D01*
X131963142Y-52301714D02*
X132077428Y-52358857D01*
X132306000Y-52358857D01*
X132420285Y-52301714D01*
X132477428Y-52244571D01*
X132534571Y-52130285D01*
X132534571Y-51787428D01*
X132477428Y-51673142D01*
X132420285Y-51616000D01*
X132306000Y-51558857D01*
X132077428Y-51558857D01*
X131963142Y-51616000D01*
X131391714Y-52358857D02*
X131391714Y-51558857D01*
X131391714Y-51158857D02*
X131448857Y-51216000D01*
X131391714Y-51273142D01*
X131334571Y-51216000D01*
X131391714Y-51158857D01*
X131391714Y-51273142D01*
X130991714Y-51558857D02*
X130534571Y-51558857D01*
X130820285Y-51158857D02*
X130820285Y-52187428D01*
X130763142Y-52301714D01*
X130648857Y-52358857D01*
X130534571Y-52358857D01*
X130248857Y-51558857D02*
X129963142Y-52358857D01*
X129677428Y-51558857D01*
X128763142Y-52301714D02*
X128877428Y-52358857D01*
X129106000Y-52358857D01*
X129220285Y-52301714D01*
X129277428Y-52187428D01*
X129277428Y-51730285D01*
X129220285Y-51616000D01*
X129106000Y-51558857D01*
X128877428Y-51558857D01*
X128763142Y-51616000D01*
X128706000Y-51730285D01*
X128706000Y-51844571D01*
X129277428Y-51958857D01*
X128191714Y-52358857D02*
X128191714Y-51558857D01*
X128191714Y-51787428D02*
X128134571Y-51673142D01*
X128077428Y-51616000D01*
X127963142Y-51558857D01*
X127848857Y-51558857D01*
X127506000Y-52301714D02*
X127391714Y-52358857D01*
X127163142Y-52358857D01*
X127048857Y-52301714D01*
X126991714Y-52187428D01*
X126991714Y-52130285D01*
X127048857Y-52016000D01*
X127163142Y-51958857D01*
X127334571Y-51958857D01*
X127448857Y-51901714D01*
X127506000Y-51787428D01*
X127506000Y-51730285D01*
X127448857Y-51616000D01*
X127334571Y-51558857D01*
X127163142Y-51558857D01*
X127048857Y-51616000D01*
X126477428Y-52358857D02*
X126477428Y-51558857D01*
X126477428Y-51158857D02*
X126534571Y-51216000D01*
X126477428Y-51273142D01*
X126420285Y-51216000D01*
X126477428Y-51158857D01*
X126477428Y-51273142D01*
X125734571Y-52358857D02*
X125848857Y-52301714D01*
X125906000Y-52244571D01*
X125963142Y-52130285D01*
X125963142Y-51787428D01*
X125906000Y-51673142D01*
X125848857Y-51616000D01*
X125734571Y-51558857D01*
X125563142Y-51558857D01*
X125448857Y-51616000D01*
X125391714Y-51673142D01*
X125334571Y-51787428D01*
X125334571Y-52130285D01*
X125391714Y-52244571D01*
X125448857Y-52301714D01*
X125563142Y-52358857D01*
X125734571Y-52358857D01*
X124820285Y-51558857D02*
X124820285Y-52358857D01*
X124820285Y-51673142D02*
X124763142Y-51616000D01*
X124648857Y-51558857D01*
X124477428Y-51558857D01*
X124363142Y-51616000D01*
X124306000Y-51730285D01*
X124306000Y-52358857D01*
X123791714Y-52358857D02*
X122877428Y-51158857D01*
X123620285Y-51158857D02*
X123506000Y-51216000D01*
X123448857Y-51330285D01*
X123506000Y-51444571D01*
X123620285Y-51501714D01*
X123734571Y-51444571D01*
X123791714Y-51330285D01*
X123734571Y-51216000D01*
X123620285Y-51158857D01*
X122934571Y-52301714D02*
X122877428Y-52187428D01*
X122934571Y-52073142D01*
X123048857Y-52016000D01*
X123163142Y-52073142D01*
X123220285Y-52187428D01*
X123163142Y-52301714D01*
X123048857Y-52358857D01*
X122934571Y-52301714D01*
X122420285Y-52358857D02*
X121506000Y-51158857D01*
X122248857Y-51158857D02*
X122134571Y-51216000D01*
X122077428Y-51330285D01*
X122134571Y-51444571D01*
X122248857Y-51501714D01*
X122363142Y-51444571D01*
X122420285Y-51330285D01*
X122363142Y-51216000D01*
X122248857Y-51158857D01*
X121563142Y-52301714D02*
X121506000Y-52187428D01*
X121563142Y-52073142D01*
X121677428Y-52016000D01*
X121791714Y-52073142D01*
X121848857Y-52187428D01*
X121791714Y-52301714D01*
X121677428Y-52358857D01*
X121563142Y-52301714D01*
%LPC*%
D11*
%TO.C,P1*%
X107950000Y-43180000D03*
D12*
X107950000Y-40640000D03*
X110490000Y-43180000D03*
X110490000Y-40640000D03*
X113030000Y-43180000D03*
X113030000Y-40640000D03*
X115570000Y-43180000D03*
X115570000Y-40640000D03*
X118110000Y-43180000D03*
X118110000Y-40640000D03*
X120650000Y-43180000D03*
X120650000Y-40640000D03*
X123190000Y-43180000D03*
X123190000Y-40640000D03*
X125730000Y-43180000D03*
X125730000Y-40640000D03*
X128270000Y-43180000D03*
X128270000Y-40640000D03*
X130810000Y-43180000D03*
X130810000Y-40640000D03*
X133350000Y-43180000D03*
X133350000Y-40640000D03*
X135890000Y-43180000D03*
X135890000Y-40640000D03*
X138430000Y-43180000D03*
X138430000Y-40640000D03*
X140970000Y-43180000D03*
X140970000Y-40640000D03*
X143510000Y-43180000D03*
X143510000Y-40640000D03*
X146050000Y-43180000D03*
X146050000Y-40640000D03*
X148590000Y-43180000D03*
X148590000Y-40640000D03*
X151130000Y-43180000D03*
X151130000Y-40640000D03*
X153670000Y-43180000D03*
X153670000Y-40640000D03*
X156210000Y-43180000D03*
X156210000Y-40640000D03*
%TD*%
D11*
%TO.C,Panel-1*%
X88900000Y-67056000D03*
D12*
X88900000Y-64516000D03*
X91440000Y-67056000D03*
X91440000Y-64516000D03*
X93980000Y-67056000D03*
X93980000Y-64516000D03*
X96520000Y-67056000D03*
X96520000Y-64516000D03*
X99060000Y-67056000D03*
X99060000Y-64516000D03*
X101600000Y-67056000D03*
X101600000Y-64516000D03*
X104140000Y-67056000D03*
X104140000Y-64516000D03*
X106680000Y-67056000D03*
X106680000Y-64516000D03*
%TD*%
D11*
%TO.C,Panel-2*%
X116840000Y-67056000D03*
D12*
X116840000Y-64516000D03*
X119380000Y-67056000D03*
X119380000Y-64516000D03*
X121920000Y-67056000D03*
X121920000Y-64516000D03*
X124460000Y-67056000D03*
X124460000Y-64516000D03*
X127000000Y-67056000D03*
X127000000Y-64516000D03*
X129540000Y-67056000D03*
X129540000Y-64516000D03*
X132080000Y-67056000D03*
X132080000Y-64516000D03*
X134620000Y-67056000D03*
X134620000Y-64516000D03*
%TD*%
D11*
%TO.C,Panel-3*%
X144780000Y-67056000D03*
D12*
X144780000Y-64516000D03*
X147320000Y-67056000D03*
X147320000Y-64516000D03*
X149860000Y-67056000D03*
X149860000Y-64516000D03*
X152400000Y-67056000D03*
X152400000Y-64516000D03*
X154940000Y-67056000D03*
X154940000Y-64516000D03*
X157480000Y-67056000D03*
X157480000Y-64516000D03*
X160020000Y-67056000D03*
X160020000Y-64516000D03*
X162560000Y-67056000D03*
X162560000Y-64516000D03*
%TD*%
D13*
%TO.C,P20*%
X103080000Y-41910000D03*
%TD*%
%TO.C,P21*%
X161080000Y-41910000D03*
%TD*%
D14*
%TO.C,P5*%
X110744000Y-45847000D03*
%TD*%
D15*
%TO.C,C5*%
X92710000Y-42799000D03*
D16*
X92710000Y-40299000D03*
%TD*%
D14*
%TO.C,P3*%
X119380000Y-45847000D03*
%TD*%
D17*
%TO.C,P2*%
X87376000Y-46990000D03*
%TD*%
%TO.C,P4*%
X87376000Y-50800000D03*
%TD*%
D18*
%TO.C,P6*%
X86360000Y-54102000D03*
X88900000Y-54102000D03*
%TD*%
D19*
%TO.C,P7*%
X86360000Y-56642000D03*
D20*
X88900000Y-56642000D03*
%TD*%
D18*
%TO.C,P8*%
X86360000Y-59182000D03*
X88900000Y-59182000D03*
%TD*%
D13*
%TO.C,*%
X50000000Y-67500000D03*
%TD*%
D16*
%TO.C,J6*%
X47500000Y-58420000D03*
D21*
X56500000Y-58420000D03*
D22*
X50500000Y-58420000D03*
D23*
X49500000Y-62920000D03*
X49500000Y-53920000D03*
%TD*%
D24*
%TO.C,J1*%
X62225000Y-65070000D03*
D25*
X67305000Y-65070000D03*
%TD*%
D24*
%TO.C,J3*%
X68000000Y-42000000D03*
D25*
X62920000Y-42000000D03*
%TD*%
D15*
%TO.C,C7*%
X79500000Y-50817621D03*
D16*
X79500000Y-53317621D03*
%TD*%
%TO.C,J5*%
X47500000Y-45720000D03*
D21*
X56500000Y-45720000D03*
D22*
X50500000Y-45720000D03*
D23*
X49500000Y-50220000D03*
X49500000Y-41220000D03*
%TD*%
D24*
%TO.C,J4*%
X79500000Y-42000000D03*
D25*
X74420000Y-42000000D03*
%TD*%
D24*
%TO.C,J2*%
X73655000Y-65070000D03*
D25*
X78735000Y-65070000D03*
%TD*%
D26*
X122448000Y-59056000D03*
X104659500Y-58655800D03*
X160000000Y-52000000D03*
X144634400Y-48160000D03*
X95500000Y-55250000D03*
X105029000Y-61976000D03*
X120750000Y-54750000D03*
X136000000Y-55250000D03*
X144310000Y-50350700D03*
X149225000Y-47951000D03*
X143270400Y-47332100D03*
X94208000Y-45594300D03*
X139973900Y-48232500D03*
X136525000Y-47724700D03*
X127635000Y-46228000D03*
X138230600Y-51450000D03*
X111520000Y-66774400D03*
X111221000Y-60767800D03*
X107940500Y-63564400D03*
X101092000Y-62611000D03*
X117884900Y-61925400D03*
X119380700Y-60713100D03*
X124587000Y-48006000D03*
X108204000Y-57658000D03*
X120650000Y-68262460D03*
X118110000Y-70104000D03*
X150876000Y-69850000D03*
M02*
